<?xml version="1.0" encoding="utf-8"?><svg width="748px" height="600px"  style="font-family: Helvetica Neue, Helvetica, Arial, sans-serif;font-size: 14px;" version="1.1" xmlns="http://www.w3.org/2000/svg" xmlns:xlink="http://www.w3.org/1999/xlink"><defs xmlns="http://www.w3.org/2000/svg"><clipPath id="id-2682"><rect width="748" height="600"/></clipPath><linearGradient id="gradient-id-2723" x1="1%" x2="99%" y1="59%" y2="41%"><stop stop-color="#474758" offset="0"/><stop stop-color="#474758" stop-opacity="1" offset="0.75"/><stop stop-color="#3cabff" stop-opacity="1" offset="0.755"/></linearGradient><filter id="filter-id-2731" width="200%" height="200%" x="-50%" y="-50%"/><filter id="filter-id-2751" width="200%" height="200%" x="-50%" y="-50%"/><clipPath id="id-2783"><path d="M0,0 L666,0 L666,426.66 L0,426.66 L0,0"/></clipPath><clipPath id="id-2802"><path d="M0,0 L666,0 L666,426.66 L0,426.66 L0,0"/></clipPath><filter id="filter-id-2804" width="200%" height="200%" x="-50%" y="-50%"><feGaussianBlur result="blurOut" in="SourceGraphic" stdDeviation="1.5"/><feOffset result="offsetBlur" dx="1" dy="1"/><feFlood flood-color="#000000" flood-opacity="0.5"/><feComposite in2="offsetBlur" operator="in"/><feMerge><feMergeNode/><feMergeNode in="SourceGraphic"/></feMerge></filter><filter id="filter-id-2785" width="200%" height="200%" x="-50%" y="-50%"><feGaussianBlur result="blurOut" in="SourceGraphic" stdDeviation="1.5"/><feOffset result="offsetBlur" dx="1" dy="1"/><feFlood flood-color="#000000" flood-opacity="0.5"/><feComposite in2="offsetBlur" operator="in"/><feMerge><feMergeNode/><feMergeNode in="SourceGraphic"/></feMerge></filter><clipPath id="id-3177"><rect width="666" height="426.66"/></clipPath><filter id="filter-id-2720" width="120%" height="120%" x="-10%" y="-10%"><feColorMatrix type="saturate" values="0"/></filter><filter id="filter-id-2706" width="200%" height="200%" x="-50%" y="-50%"><feGaussianBlur result="blurOut" in="SourceGraphic" stdDeviation="1.5"/><feOffset result="offsetBlur" dx="1" dy="1"/><feFlood flood-color="#000000" flood-opacity="0.5"/><feComposite in2="offsetBlur" operator="in"/><feMerge><feMergeNode/><feMergeNode in="SourceGraphic"/></feMerge></filter></defs><g xmlns="http://www.w3.org/2000/svg" clip-path="url(#id-2682)" style=""><g><g role="region" aria-labelledby="id-2728" opacity="1" aria-label="Chart"><g transform="translate(15,15)"><g fill="#000000" font-size="16" transform="translate(200,0)"><g id="id-2728" style="user-select: none;"><text x="0" y="18.34375" dy="-3.669"><tspan>dogs dogs dogs dogs dogs dogs dogs dogs</tspan></text></g></g><g transform="translate(0,48.34375)"><g><g><g><g><g><g transform="translate(52,0)" style="touch-action: none; user-select: none; -webkit-user-drag: none;"><g fill="#ffffff" fill-opacity="0"><rect width="666" height="426.66"/></g><g><g><g><g stroke="#000000" stroke-opacity="0.15" fill="none" transform="translate(0,304.8)"><path d=" M0,0  L666,0 " transform="translate(-0.5,-0.5)"/></g><g fill="#000000" fill-opacity="0" style="pointer-events: none;" display="none"><path d="M0,284.4 L0,304.8 L666,304.8 L666,284.4 L0,284.4"/></g><g stroke="#000000" stroke-opacity="0.15" fill="none" transform="translate(0,325.1)"><path d=" M0,0  L666,0 " transform="translate(-0.5,-0.5)"/></g><g fill="#000000" fill-opacity="0" style="pointer-events: none;"><path d="M0,304.8 L0,325.1 L666,325.1 L666,304.8 L0,304.8"/></g><g stroke="#000000" stroke-opacity="0.15" fill="none" transform="translate(0,426.7)"><path d=" M0,0  L666,0 " transform="translate(-0.5,-0.5)"/></g><g fill="#000000" fill-opacity="0" style="pointer-events: none;" display="none"><path d="M0,406.3 L0,426.66 L666,426.66 L666,406.3 L0,406.3"/></g><g stroke="#000000" stroke-opacity="0.15" fill="none" transform="translate(0,345.4)"><path d=" M0,0  L666,0 " transform="translate(-0.5,-0.5)"/></g><g fill="#000000" fill-opacity="0" style="pointer-events: none;" display="none"><path d="M0,325.1 L0,345.4 L666,345.4 L666,325.1 L0,325.1"/></g><g stroke="#000000" stroke-opacity="0.15" fill="none" transform="translate(0,365.7)"><path d=" M0,0  L666,0 " transform="translate(-0.5,-0.5)"/></g><g fill="#000000" fill-opacity="0" style="pointer-events: none;"><path d="M0,345.4 L0,365.7 L666,365.7 L666,345.4 L0,345.4"/></g><g stroke="#000000" stroke-opacity="0.15" fill="none" transform="translate(0,386)"><path d=" M0,0  L666,0 " transform="translate(-0.5,-0.5)"/></g><g fill="#000000" fill-opacity="0" style="pointer-events: none;" display="none"><path d="M0,365.7 L0,386 L666,386 L666,365.7 L0,365.7"/></g><g stroke="#000000" stroke-opacity="0.15" fill="none" transform="translate(0,406.3)"><path d=" M0,0  L666,0 " transform="translate(-0.5,-0.5)"/></g><g fill="#000000" fill-opacity="0" style="pointer-events: none;"><path d="M0,386 L0,406.3 L666,406.3 L666,386 L0,386"/></g><g stroke="#000000" stroke-opacity="0.15" fill="none" transform="translate(0,447)" display="none"><path d=" M0,0  L666,0 " transform="translate(-0.5,-0.5)"/></g><g fill="#000000" fill-opacity="0" style="pointer-events: none;"><path d="M0,426.66 L0,426.66 L666,426.66 L666,426.66 L0,426.66"/></g><g stroke="#000000" stroke-opacity="0.15" fill="none" transform="translate(0,467.3)" display="none"><path d=" M0,0  L666,0 " transform="translate(-0.5,-0.5)"/></g><g fill="#000000" fill-opacity="0" style="pointer-events: none;" display="none"><path d="M0,426.66 L0,426.66 L666,426.66 L666,426.66 L0,426.66"/></g><g stroke="#000000" stroke-opacity="0.15" fill="none" transform="translate(0,284.4)"><path d=" M0,0  L666,0 " transform="translate(-0.5,-0.5)"/></g><g fill="#000000" fill-opacity="0" style="pointer-events: none;"><path d="M0,264.1 L0,284.4 L666,284.4 L666,264.1 L0,264.1"/></g><g stroke="#000000" stroke-opacity="0.15" fill="none" transform="translate(0,264.1)"><path d=" M0,0  L666,0 " transform="translate(-0.5,-0.5)"/></g><g fill="#000000" fill-opacity="0" style="pointer-events: none;" display="none"><path d="M0,243.8 L0,264.1 L666,264.1 L666,243.8 L0,243.8"/></g><g stroke="#000000" stroke-opacity="0.15" fill="none" transform="translate(0,243.8)"><path d=" M0,0  L666,0 " transform="translate(-0.5,-0.5)"/></g><g fill="#000000" fill-opacity="0" style="pointer-events: none;"><path d="M0,223.5 L0,243.8 L666,243.8 L666,223.5 L0,223.5"/></g><g stroke="#000000" stroke-opacity="0.15" fill="none" transform="translate(0,223.5)"><path d=" M0,0  L666,0 " transform="translate(-0.5,-0.5)"/></g><g fill="#000000" fill-opacity="0" style="pointer-events: none;" display="none"><path d="M0,203.2 L0,223.5 L666,223.5 L666,203.2 L0,203.2"/></g><g stroke="#000000" stroke-opacity="0.15" fill="none" transform="translate(0,203.2)"><path d=" M0,0  L666,0 " transform="translate(-0.5,-0.5)"/></g><g fill="#000000" fill-opacity="0" style="pointer-events: none;"><path d="M0,182.9 L0,203.2 L666,203.2 L666,182.9 L0,182.9"/></g><g stroke="#000000" stroke-opacity="0.15" fill="none" transform="translate(0,182.9)"><path d=" M0,0  L666,0 " transform="translate(-0.5,-0.5)"/></g><g fill="#000000" fill-opacity="0" style="pointer-events: none;" display="none"><path d="M0,162.5 L0,182.9 L666,182.9 L666,162.5 L0,162.5"/></g><g stroke="#000000" stroke-opacity="0.15" fill="none" transform="translate(0,162.5)"><path d=" M0,0  L666,0 " transform="translate(-0.5,-0.5)"/></g><g fill="#000000" fill-opacity="0" style="pointer-events: none;"><path d="M0,142.2 L0,162.5 L666,162.5 L666,142.2 L0,142.2"/></g><g stroke="#000000" stroke-opacity="0.15" fill="none" transform="translate(0,142.2)"><path d=" M0,0  L666,0 " transform="translate(-0.5,-0.5)"/></g><g fill="#000000" fill-opacity="0" style="pointer-events: none;" display="none"><path d="M0,121.9 L0,142.2 L666,142.2 L666,121.9 L0,121.9"/></g><g stroke="#000000" stroke-opacity="0.15" fill="none" transform="translate(0,121.9)"><path d=" M0,0  L666,0 " transform="translate(-0.5,-0.5)"/></g><g fill="#000000" fill-opacity="0" style="pointer-events: none;"><path d="M0,101.6 L0,121.9 L666,121.9 L666,101.6 L0,101.6"/></g><g stroke="#000000" stroke-opacity="0.15" fill="none" transform="translate(0,101.6)"><path d=" M0,0  L666,0 " transform="translate(-0.5,-0.5)"/></g><g fill="#000000" fill-opacity="0" style="pointer-events: none;" display="none"><path d="M0,81.3 L0,101.6 L666,101.6 L666,81.3 L0,81.3"/></g><g stroke="#000000" stroke-opacity="0.15" fill="none" transform="translate(0,81.3)"><path d=" M0,0  L666,0 " transform="translate(-0.5,-0.5)"/></g><g fill="#000000" fill-opacity="0" style="pointer-events: none;"><path d="M0,61 L0,81.3 L666,81.3 L666,61 L0,61"/></g><g stroke="#000000" stroke-opacity="0.15" fill="none" transform="translate(0,61)"><path d=" M0,0  L666,0 " transform="translate(-0.5,-0.5)"/></g><g fill="#000000" fill-opacity="0" style="pointer-events: none;" display="none"><path d="M0,40.6 L0,61 L666,61 L666,40.6 L0,40.6"/></g><g stroke="#000000" stroke-opacity="0.15" fill="none" transform="translate(0,40.6)"><path d=" M0,0  L666,0 " transform="translate(-0.5,-0.5)"/></g><g fill="#000000" fill-opacity="0" style="pointer-events: none;"><path d="M0,20.3 L0,40.6 L666,40.6 L666,20.3 L0,20.3"/></g><g stroke="#000000" stroke-opacity="0.15" fill="none" transform="translate(0,20.3)"><path d=" M0,0  L666,0 " transform="translate(-0.5,-0.5)"/></g><g fill="#000000" fill-opacity="0" style="pointer-events: none;" display="none"><path d="M0,0 L0,20.3 L666,20.3 L666,0 L0,0"/></g><g stroke="#000000" stroke-opacity="0.15" fill="none"><path d=" M0,0  L666,0 " transform="translate(-0.5,-0.5)"/></g><g fill="#000000" fill-opacity="0" style="pointer-events: none;"><path d="M0,0 L0,0 L666,0 L666,0 L0,0"/></g><g stroke="#000000" stroke-opacity="0.15" fill="none" transform="translate(0,-20.3)" display="none"><path d=" M0,0  L666,0 " transform="translate(-0.5,-0.5)"/></g><g fill="#000000" fill-opacity="0" style="pointer-events: none;" display="none"><path d="M0,0 L0,0 L666,0 L666,0 L0,0"/></g></g></g><g><g><g stroke="#000000" stroke-opacity="0.15" fill="none"><path d=" M0,0  L0,426.66 " transform="translate(-0.5,-0.5)"/></g><g fill="#000000" fill-opacity="0" opacity="0" style="pointer-events: none;" display="none"><path d="M0,0 L0,426.66 L95.14475999999999,426.66 L95.14475999999999,0 L0,0"/></g><g stroke="#000000" stroke-opacity="0.15" fill="none" transform="translate(666,0)"><path d=" M0,0  L0,426.66 " transform="translate(-0.5,-0.5)"/></g><g fill="#000000" fill-opacity="0" opacity="0" style="pointer-events: none;" display="none"><path d="M666,0 L666,426.66 L666,426.66 L666,0 L666,0"/></g><g stroke="#000000" stroke-opacity="0.15" fill="none" transform="translate(95.14475999999999,0)"><path d=" M0,0  L0,426.66 " transform="translate(-0.5,-0.5)"/></g><g fill="#000000" fill-opacity="0" opacity="1" style="pointer-events: none;"><path d="M95.14475999999999,0 L95.14475999999999,426.66 L190.28286,426.66 L190.28286,0 L95.14475999999999,0"/></g><g stroke="#000000" stroke-opacity="0.15" fill="none" transform="translate(190.28286,0)"><path d=" M0,0  L0,426.66 " transform="translate(-0.5,-0.5)"/></g><g fill="#000000" fill-opacity="0" opacity="0" display="none" style="pointer-events: none;"><path d="M190.28286,0 L190.28286,426.66 L285.42762,426.66 L285.42762,0 L190.28286,0"/></g><g stroke="#000000" stroke-opacity="0.15" fill="none" transform="translate(285.42762,0)"><path d=" M0,0  L0,426.66 " transform="translate(-0.5,-0.5)"/></g><g fill="#000000" fill-opacity="0" opacity="1" style="pointer-events: none;"><path d="M285.42762,0 L285.42762,426.66 L380.57238,426.66 L380.57238,0 L285.42762,0"/></g><g stroke="#000000" stroke-opacity="0.15" fill="none" transform="translate(380.57238,0)"><path d=" M0,0  L0,426.66 " transform="translate(-0.5,-0.5)"/></g><g fill="#000000" fill-opacity="0" opacity="0" display="none" style="pointer-events: none;"><path d="M380.57238,0 L380.57238,426.66 L475.71714,426.66 L475.71714,0 L380.57238,0"/></g><g stroke="#000000" stroke-opacity="0.15" fill="none" transform="translate(475.71714,0)"><path d=" M0,0  L0,426.66 " transform="translate(-0.5,-0.5)"/></g><g fill="#000000" fill-opacity="0" opacity="1" style="pointer-events: none;"><path d="M475.71714,0 L475.71714,426.66 L570.85524,426.66 L570.85524,0 L475.71714,0"/></g><g stroke="#000000" stroke-opacity="0.15" fill="none" transform="translate(570.85524,0)"><path d=" M0,0  L0,426.66 " transform="translate(-0.5,-0.5)"/></g><g fill="#000000" fill-opacity="0" opacity="0" display="none" style="pointer-events: none;"><path d="M570.85524,0 L570.85524,426.66 L666,426.66 L666,0 L570.85524,0"/></g></g></g><g><g><g role="group" stroke-opacity="1" fill-opacity="0" fill="#67b7dc" stroke="#611aff" stroke-width="2" aria-label="openai" opacity="1"><g id="id-2780"><g clip-path="url(#id-2783)"><g><g><g><g fill="#67b7dc" fill-opacity="0" stroke="#611aff" stroke-opacity="1" stroke-width="2" style="pointer-events: none;"><g><g stroke-opacity="0"><path/></g><g fill-opacity="0"><path d=" M0,144.7  L0,144.7  L0,144.7  L95.1448,144.7  L95.1448,209.1  L190.2829,209.1  L190.2829,231.6  L285.4276,231.6  L285.4276,339.7  L380.5724,339.7  L380.5724,367.7  L475.7171,367.7  L475.7171,377.1  L570.8552,377.1  L570.8552,381.8  L666,381.8 "/></g></g></g></g></g></g></g></g></g><g role="group" stroke-opacity="1" fill-opacity="0" fill="#6794dc" stroke="#ff325a" stroke-width="2" aria-label="lstm" opacity="1"><g id="id-2799"><g clip-path="url(#id-2802)"><g><g><g><g fill="#6794dc" fill-opacity="0" stroke="#ff325a" stroke-opacity="1" stroke-width="2" style="pointer-events: none;"><g><g stroke-opacity="0"><path/></g><g fill-opacity="0"><path d=" M0,211.3  L0,211.3  L0,211.3  L95.1448,211.3  L95.1448,258.8  L190.2829,258.8  L190.2829,254.8  L285.4276,254.8  L380.5724,255.2  L475.7171,254.4  L475.7171,252.9  L570.8552,252.9  L570.8552,251.1  L666,251.1 "/></g></g></g></g></g></g></g></g></g></g></g><g clip-path="url(#id-3177)"><g><g fill="#67b7dc" stroke="#611aff"><g><g focusable="true" opacity="1" transform="translate(47.572379999999995,144.7)"><g><g fill="#611aff"><circle r="5"/></g></g></g><g focusable="true" opacity="1" transform="translate(142.71714,209.1)"><g><g fill="#611aff"><circle r="5"/></g></g></g><g focusable="true" opacity="1" transform="translate(237.85524,231.6)"><g><g fill="#611aff"><circle r="5"/></g></g></g><g focusable="true" opacity="1" transform="translate(333,339.7)"><g><g fill="#611aff"><circle r="5"/></g></g></g><g focusable="true" opacity="1" transform="translate(428.14476,367.7)"><g><g fill="#611aff"><circle r="5"/></g></g></g><g focusable="true" opacity="1" transform="translate(523.28286,377.1)"><g><g fill="#611aff"><circle r="5"/></g></g></g><g focusable="true" opacity="1" transform="translate(618.42762,381.8)"><g><g fill="#611aff"><circle r="5"/></g></g></g></g></g><g fill="#6794dc" stroke="#ff325a"><g><g focusable="true" opacity="1" transform="translate(47.572379999999995,211.3)"><g><g fill="#ff325a"><circle r="5"/></g></g></g><g focusable="true" opacity="1" transform="translate(142.71714,258.8)"><g><g fill="#ff325a"><circle r="5"/></g></g></g><g focusable="true" opacity="1" transform="translate(237.85524,254.8)"><g><g fill="#ff325a"><circle r="5"/></g></g></g><g focusable="true" opacity="1" transform="translate(333,255.2)"><g><g fill="#ff325a"><circle r="5"/></g></g></g><g focusable="true" opacity="1" transform="translate(428.14476,254.4)"><g><g fill="#ff325a"><circle r="5"/></g></g></g><g focusable="true" opacity="1" transform="translate(523.28286,252.9)"><g><g fill="#ff325a"><circle r="5"/></g></g></g><g focusable="true" opacity="1" transform="translate(618.42762,251.1)"><g><g fill="#ff325a"><circle r="5"/></g></g></g></g></g></g></g><g><g/></g><g><g/></g><g opacity="0" style="touch-action: none; user-select: none; -webkit-user-drag: none;" visibility="hidden"><g><g fill-opacity="0.2" fill="#000000" style="pointer-events: none;" opacity="0" visibility="hidden"><path/></g><g stroke="#000000" fill="none" stroke-dasharray="3,3" stroke-opacity="0.4" style="pointer-events: none;" transform="translate(643,0)"><path d=" M0,0  L0,426.66 "/></g><g stroke="#000000" fill="none" stroke-dasharray="3,3" stroke-opacity="0.4" style="pointer-events: none;" transform="translate(0,0)"><path d=" M0,0  L666,0 "/></g></g></g><g role="button" focusable="true" opacity="0" visibility="hidden" transform="translate(626,-3)" aria-labelledby="id-2697-title"><g fill="#6794dc" stroke="#ffffff" fill-opacity="1" stroke-opacity="0" transform="translate(0,8)"><path d="M17,0 L18,0 a17,17 0 0 1 17,17 L35,17 a17,17 0 0 1 -17,17 L17,34 a17,17 0 0 1 -17,-17 L0,17 a17,17 0 0 1 17,-17 Z"/></g><g transform="translate(9,9)"><g stroke="#ffffff" style="pointer-events: none;" transform="translate(0,8)"><path d=" M0,0  L11,0 " transform="translate(2.5,7.5)"/></g><g fill="#000000" style="pointer-events: none;" transform="translate(17,8)"><g display="none"/></g></g><title id="id-2697-title">Zoom Out</title></g></g></g><g><g><g><g><g fill="#000000" transform="translate(0,284.83000000000004) rotate(-90)"><g style="user-select: none;"><text x="0" y="16" dy="-3.2"><tspan>Negative Loglikelihood</tspan></text></g></g><g stroke="#000000" stroke-opacity="0.15" fill="none" transform="translate(0,600)" opacity="0" visibility="hidden"><path transform="translate(-0.5,-0.5)" d=" M0,0  L748,0 "/></g><g transform="translate(16,0)"><g><g fill="#000000" fill-opacity="0" opacity="0" stroke-opacity="0" transform="translate(36,213.3)"><g transform="translate(-26,-8)" style="user-select: none;"><text x="0" y="16" dy="-3.2"><tspan>30</tspan></text></g></g><g fill-opacity="0" stroke-opacity="0" stroke="#000000" stroke-width="1" transform="translate(41,304.8)"><path d=" M0,0  L-5,0 " transform="translate(-0.5,-0.5)"/></g><g fill="#000000" transform="translate(36,304.8)"><g transform="translate(-18,-8)" style="user-select: none;"><text x="0" y="16" dy="-3.2"><tspan>6</tspan></text></g></g><g fill-opacity="0" stroke-opacity="0" stroke="#000000" stroke-width="1" transform="translate(41,325.1)"><path d=" M0,0  L-5,0 " transform="translate(-0.5,-0.5)"/></g><g fill="#000000" transform="translate(36,325.1)"><g transform="translate(-18,-8)" style="user-select: none;"><text x="0" y="16" dy="-3.2"><tspan>5</tspan></text></g></g><g fill-opacity="0" stroke-opacity="0" stroke="#000000" stroke-width="1" transform="translate(41,426.7)"><path d=" M0,0  L-5,0 " transform="translate(-0.5,-0.5)"/></g><g fill="#000000" transform="translate(36,426.7)"><g transform="translate(-18,-8)" style="user-select: none;"><text x="0" y="16" dy="-3.2"><tspan>0</tspan></text></g></g><g fill-opacity="0" stroke-opacity="0" stroke="#000000" stroke-width="1" transform="translate(41,345.4)"><path d=" M0,0  L-5,0 " transform="translate(-0.5,-0.5)"/></g><g fill="#000000" transform="translate(36,345.4)"><g transform="translate(-18,-8)" style="user-select: none;"><text x="0" y="16" dy="-3.2"><tspan>4</tspan></text></g></g><g fill-opacity="0" stroke-opacity="0" stroke="#000000" stroke-width="1" transform="translate(41,365.7)"><path d=" M0,0  L-5,0 " transform="translate(-0.5,-0.5)"/></g><g fill="#000000" transform="translate(36,365.7)"><g transform="translate(-18,-8)" style="user-select: none;"><text x="0" y="16" dy="-3.2"><tspan>3</tspan></text></g></g><g fill-opacity="0" stroke-opacity="0" stroke="#000000" stroke-width="1" transform="translate(41,386)"><path d=" M0,0  L-5,0 " transform="translate(-0.5,-0.5)"/></g><g fill="#000000" transform="translate(36,386)"><g transform="translate(-18,-8)" style="user-select: none;"><text x="0" y="16" dy="-3.2"><tspan>2</tspan></text></g></g><g fill-opacity="0" stroke-opacity="0" stroke="#000000" stroke-width="1" transform="translate(41,406.3)"><path d=" M0,0  L-5,0 " transform="translate(-0.5,-0.5)"/></g><g fill="#000000" transform="translate(36,406.3)"><g transform="translate(-18,-8)" style="user-select: none;"><text x="0" y="16" dy="-3.2"><tspan>1</tspan></text></g></g><g fill-opacity="0" stroke-opacity="0" stroke="#000000" stroke-width="1" transform="translate(41,447)" display="none"><path d=" M0,0  L-5,0 " transform="translate(-0.5,-0.5)"/></g><g fill="#000000" transform="translate(36,447)" display="none"><g transform="translate(-24,-8)" style="user-select: none;"><text x="0" y="16" dy="-3.2"><tspan>-1</tspan></text></g></g><g fill-opacity="0" stroke-opacity="0" stroke="#000000" stroke-width="1" transform="translate(41,467.3)" display="none"><path d=" M0,0  L-5,0 " transform="translate(-0.5,-0.5)"/></g><g fill="#000000" transform="translate(36,467.3)" display="none"><g transform="translate(-24,-8)" style="user-select: none;"><text x="0" y="16" dy="-3.2"><tspan>-2</tspan></text></g></g><g fill-opacity="0" stroke-opacity="0" stroke="#000000" stroke-width="1" transform="translate(41,284.4)"><path d=" M0,0  L-5,0 " transform="translate(-0.5,-0.5)"/></g><g fill="#000000" transform="translate(36,284.4)"><g transform="translate(-18,-8)" style="user-select: none;"><text x="0" y="16" dy="-3.2"><tspan>7</tspan></text></g></g><g fill-opacity="0" stroke-opacity="0" stroke="#000000" stroke-width="1" transform="translate(41,264.1)"><path d=" M0,0  L-5,0 " transform="translate(-0.5,-0.5)"/></g><g fill="#000000" transform="translate(36,264.1)"><g transform="translate(-18,-8)" style="user-select: none;"><text x="0" y="16" dy="-3.2"><tspan>8</tspan></text></g></g><g fill-opacity="0" stroke-opacity="0" stroke="#000000" stroke-width="1" transform="translate(41,243.8)"><path d=" M0,0  L-5,0 " transform="translate(-0.5,-0.5)"/></g><g fill="#000000" transform="translate(36,243.8)"><g transform="translate(-18,-8)" style="user-select: none;"><text x="0" y="16" dy="-3.2"><tspan>9</tspan></text></g></g><g fill-opacity="0" stroke-opacity="0" stroke="#000000" stroke-width="1" transform="translate(41,223.5)"><path d=" M0,0  L-5,0 " transform="translate(-0.5,-0.5)"/></g><g fill="#000000" transform="translate(36,223.5)"><g transform="translate(-26,-8)" style="user-select: none;"><text x="0" y="16" dy="-3.2"><tspan>10</tspan></text></g></g><g fill-opacity="0" stroke-opacity="0" stroke="#000000" stroke-width="1" transform="translate(41,203.2)"><path d=" M0,0  L-5,0 " transform="translate(-0.5,-0.5)"/></g><g fill="#000000" transform="translate(36,203.2)"><g transform="translate(-26,-8)" style="user-select: none;"><text x="0" y="16" dy="-3.2"><tspan>11</tspan></text></g></g><g fill-opacity="0" stroke-opacity="0" stroke="#000000" stroke-width="1" transform="translate(41,182.9)"><path d=" M0,0  L-5,0 " transform="translate(-0.5,-0.5)"/></g><g fill="#000000" transform="translate(36,182.9)"><g transform="translate(-26,-8)" style="user-select: none;"><text x="0" y="16" dy="-3.2"><tspan>12</tspan></text></g></g><g fill-opacity="0" stroke-opacity="0" stroke="#000000" stroke-width="1" transform="translate(41,162.5)"><path d=" M0,0  L-5,0 " transform="translate(-0.5,-0.5)"/></g><g fill="#000000" transform="translate(36,162.5)"><g transform="translate(-26,-8)" style="user-select: none;"><text x="0" y="16" dy="-3.2"><tspan>13</tspan></text></g></g><g fill-opacity="0" stroke-opacity="0" stroke="#000000" stroke-width="1" transform="translate(41,142.2)"><path d=" M0,0  L-5,0 " transform="translate(-0.5,-0.5)"/></g><g fill="#000000" transform="translate(36,142.2)"><g transform="translate(-26,-8)" style="user-select: none;"><text x="0" y="16" dy="-3.2"><tspan>14</tspan></text></g></g><g fill-opacity="0" stroke-opacity="0" stroke="#000000" stroke-width="1" transform="translate(41,121.9)"><path d=" M0,0  L-5,0 " transform="translate(-0.5,-0.5)"/></g><g fill="#000000" transform="translate(36,121.9)"><g transform="translate(-26,-8)" style="user-select: none;"><text x="0" y="16" dy="-3.2"><tspan>15</tspan></text></g></g><g fill-opacity="0" stroke-opacity="0" stroke="#000000" stroke-width="1" transform="translate(41,101.6)"><path d=" M0,0  L-5,0 " transform="translate(-0.5,-0.5)"/></g><g fill="#000000" transform="translate(36,101.6)"><g transform="translate(-26,-8)" style="user-select: none;"><text x="0" y="16" dy="-3.2"><tspan>16</tspan></text></g></g><g fill-opacity="0" stroke-opacity="0" stroke="#000000" stroke-width="1" transform="translate(41,81.3)"><path d=" M0,0  L-5,0 " transform="translate(-0.5,-0.5)"/></g><g fill="#000000" transform="translate(36,81.3)"><g transform="translate(-26,-8)" style="user-select: none;"><text x="0" y="16" dy="-3.2"><tspan>17</tspan></text></g></g><g fill-opacity="0" stroke-opacity="0" stroke="#000000" stroke-width="1" transform="translate(41,61)"><path d=" M0,0  L-5,0 " transform="translate(-0.5,-0.5)"/></g><g fill="#000000" transform="translate(36,61)"><g transform="translate(-26,-8)" style="user-select: none;"><text x="0" y="16" dy="-3.2"><tspan>18</tspan></text></g></g><g fill-opacity="0" stroke-opacity="0" stroke="#000000" stroke-width="1" transform="translate(41,40.6)"><path d=" M0,0  L-5,0 " transform="translate(-0.5,-0.5)"/></g><g fill="#000000" transform="translate(36,40.6)"><g transform="translate(-26,-8)" style="user-select: none;"><text x="0" y="16" dy="-3.2"><tspan>19</tspan></text></g></g><g fill-opacity="0" stroke-opacity="0" stroke="#000000" stroke-width="1" transform="translate(41,20.3)"><path d=" M0,0  L-5,0 " transform="translate(-0.5,-0.5)"/></g><g fill="#000000" transform="translate(36,20.3)"><g transform="translate(-26,-8)" style="user-select: none;"><text x="0" y="16" dy="-3.2"><tspan>20</tspan></text></g></g><g fill-opacity="0" stroke-opacity="0" stroke="#000000" stroke-width="1" transform="translate(41,0)"><path d=" M0,0  L-5,0 " transform="translate(-0.5,-0.5)"/></g><g fill="#000000" transform="translate(36,0)"><g transform="translate(-26,-8)" style="user-select: none;"><text x="0" y="16" dy="-3.2"><tspan>21</tspan></text></g></g><g fill-opacity="0" stroke-opacity="0" stroke="#000000" stroke-width="1" transform="translate(41,-20.3)" display="none"><path d=" M0,0  L-5,0 " transform="translate(-0.5,-0.5)"/></g><g fill="#000000" transform="translate(36,-20.3)" display="none"><g transform="translate(-26,-8)" style="user-select: none;"><text x="0" y="16" dy="-3.2"><tspan>22</tspan></text></g></g></g></g><g stroke="#000000" stroke-opacity="0" fill="none" style="pointer-events: none;" transform="translate(52,0)"><path d=" M0,0  L0,426.66 " transform="translate(-0.5,-0.5)"/></g></g></g></g></g><g transform="translate(718,0)"><g/></g></g></g><g><g transform="translate(52,0)"/></g><g transform="translate(0,426.66)"><g transform="translate(52,0)"><g><g><g stroke="#000000" stroke-opacity="0" fill="none" style="pointer-events: none;"><path d=" M0,0  L666,0 " transform="translate(-0.5,-0.5)"/></g><g stroke="#000000" stroke-opacity="0.15" fill="none" display="none" transform="translate(666,-426.66)" opacity="0" visibility="hidden"><path transform="translate(-0.5,-0.5)" d=" M0,0  L0,426.66 "/></g><g><g><g fill="#000000" fill-opacity="0" opacity="0" stroke-opacity="0" transform="translate(333,0)"><g transform="translate(-2,10)" style="user-select: none;"><text x="0" y="16" dy="-3.2"><tspan>|</tspan></text></g></g><g fill-opacity="0" stroke-opacity="0" stroke="#000000" stroke-width="1" transform="translate(47.572379999999995,0)"><path d=" M0,0  L0,5 " transform="translate(-0.5,-0.5)"/></g><g fill="#000000" transform="translate(47.572379999999995,0)"><g transform="translate(-22,10)" style="user-select: none;"><text x="0" y="16" dy="-3.2"><tspan>0:dogs</tspan></text></g></g><g fill-opacity="0" stroke-opacity="0" stroke="#000000" stroke-width="1" display="none" transform="translate(713.57238,0)"><path d=" M0,0  L0,5 " transform="translate(-0.5,-0.5)"/></g><g fill="#000000" display="none" transform="translate(713.57238,0)"><g transform="translate(0,10)" display="none"/></g><g fill-opacity="0" stroke-opacity="0" stroke="#000000" stroke-width="1" transform="translate(142.71381,0)"><path d=" M0,0  L0,5 " transform="translate(-0.5,-0.5)"/></g><g fill="#000000" transform="translate(142.71381,0)"><g transform="translate(-22,10)" style="user-select: none;"><text x="0" y="16" dy="-3.2"><tspan>1:dogs</tspan></text></g></g><g fill-opacity="0" stroke-opacity="0" stroke="#000000" stroke-width="1" transform="translate(237.85524,0)"><path d=" M0,0  L0,5 " transform="translate(-0.5,-0.5)"/></g><g fill="#000000" transform="translate(237.85524,0)"><g transform="translate(-22,10)" style="user-select: none;"><text x="0" y="16" dy="-3.2"><tspan>2:dogs</tspan></text></g></g><g fill-opacity="0" stroke-opacity="0" stroke="#000000" stroke-width="1" transform="translate(333,0)"><path d=" M0,0  L0,5 " transform="translate(-0.5,-0.5)"/></g><g fill="#000000" transform="translate(333,0)"><g transform="translate(-22,10)" style="user-select: none;"><text x="0" y="16" dy="-3.2"><tspan>3:dogs</tspan></text></g></g><g fill-opacity="0" stroke-opacity="0" stroke="#000000" stroke-width="1" transform="translate(428.14476,0)"><path d=" M0,0  L0,5 " transform="translate(-0.5,-0.5)"/></g><g fill="#000000" transform="translate(428.14476,0)"><g transform="translate(-22,10)" style="user-select: none;"><text x="0" y="16" dy="-3.2"><tspan>4:dogs</tspan></text></g></g><g fill-opacity="0" stroke-opacity="0" stroke="#000000" stroke-width="1" transform="translate(523.2861899999999,0)"><path d=" M0,0  L0,5 " transform="translate(-0.5,-0.5)"/></g><g fill="#000000" transform="translate(523.2861899999999,0)"><g transform="translate(-22,10)" style="user-select: none;"><text x="0" y="16" dy="-3.2"><tspan>5:dogs</tspan></text></g></g><g fill-opacity="0" stroke-opacity="0" stroke="#000000" stroke-width="1" transform="translate(618.42762,0)"><path d=" M0,0  L0,5 " transform="translate(-0.5,-0.5)"/></g><g fill="#000000" transform="translate(618.42762,0)"><g transform="translate(-22,10)" style="user-select: none;"><text x="0" y="16" dy="-3.2"><tspan>6:dogs</tspan></text></g></g></g></g><g fill="#000000" transform="translate(304,36)"><g style="user-select: none;"><text x="0" y="16" dy="-3.2"><tspan>Timestep</tspan></text></g></g></g></g></g></g></g></g><g role="group" aria-label="Legend" transform="translate(0,478.66)"><g><g focusable="true" role="checkbox" aria-controls="id-2780" aria-labelledby="id-2780" aria-checked="false" transform="translate(281,0)" style="cursor: pointer;"><g fill="#ffffff" fill-opacity="0"><rect width="76" height="43"/></g><g transform="translate(0,10)"><g fill="#67b7dc" style="pointer-events: none;"><g fill="#ffffff" fill-opacity="0" stroke-opacity="0" stroke="#999999"><rect width="23" height="23"/></g><g><g fill="#67b7dc" fill-opacity="0" stroke="#611aff" stroke-opacity="1" stroke-width="2" transform="translate(0,11.5)"><line x1="0" y1="0" x2="23" y2="0" transform="translate(-0.5,-0.5)"/></g><g focusable="true" fill="#67b7dc" stroke="#611aff" transform="translate(11.5,11.5)"><g><g fill="#611aff"><circle r="5"/></g></g></g></g></g><g fill="#000000" style="pointer-events: none;" transform="translate(28,3.5)"><g style="user-select: none;"><text x="0" y="16" dy="-3.2"><tspan>openai</tspan></text></g></g><g fill="#000000" style="pointer-events: none;" display="none"><g display="none"/></g></g></g><g focusable="true" role="checkbox" aria-controls="id-2799" aria-labelledby="id-2799" aria-checked="false" transform="translate(367,0)" style="cursor: pointer;"><g fill="#ffffff" fill-opacity="0"><rect width="60" height="43"/></g><g transform="translate(0,10)"><g fill="#6794dc" style="pointer-events: none;"><g fill="#ffffff" fill-opacity="0" stroke-opacity="0" stroke="#999999"><rect width="23" height="23"/></g><g><g fill="#6794dc" fill-opacity="0" stroke="#ff325a" stroke-opacity="1" stroke-width="2" transform="translate(0,11.5)"><line x1="0" y1="0" x2="23" y2="0" transform="translate(-0.5,-0.5)"/></g><g focusable="true" fill="#6794dc" stroke="#ff325a" transform="translate(11.5,11.5)"><g><g fill="#ff325a"><circle r="5"/></g></g></g></g></g><g fill="#000000" style="pointer-events: none;" transform="translate(28,3.5)"><g style="user-select: none;"><text x="0" y="16" dy="-3.2"><tspan>lstm</tspan></text></g></g><g fill="#000000" style="pointer-events: none;" display="none"><g display="none"/></g></g></g></g></g></g></g></g></g></g></g></svg>