<?xml version="1.0" encoding="utf-8"?><svg width="748px" height="600px"  style="font-family: Helvetica Neue, Helvetica, Arial, sans-serif;font-size: 14px;" version="1.1" xmlns="http://www.w3.org/2000/svg" xmlns:xlink="http://www.w3.org/1999/xlink"><defs xmlns="http://www.w3.org/2000/svg"><clipPath id="id-5"><rect width="748" height="600"/></clipPath><linearGradient id="gradient-id-46" x1="1%" x2="99%" y1="59%" y2="41%"><stop stop-color="#474758" offset="0"/><stop stop-color="#474758" stop-opacity="1" offset="0.75"/><stop stop-color="#3cabff" stop-opacity="1" offset="0.755"/></linearGradient><filter id="filter-id-54" width="200%" height="200%" x="-50%" y="-50%"/><filter id="filter-id-74" width="200%" height="200%" x="-50%" y="-50%"/><clipPath id="id-106"><path d="M0,0 L666,0 L666,426.66 L0,426.66 L0,0"/></clipPath><clipPath id="id-125"><path d="M0,0 L666,0 L666,426.66 L0,426.66 L0,0"/></clipPath><filter id="filter-id-127" width="200%" height="200%" x="-50%" y="-50%"><feGaussianBlur result="blurOut" in="SourceGraphic" stdDeviation="1.5"/><feOffset result="offsetBlur" dx="1" dy="1"/><feFlood flood-color="#000000" flood-opacity="0.5"/><feComposite in2="offsetBlur" operator="in"/><feMerge><feMergeNode/><feMergeNode in="SourceGraphic"/></feMerge></filter><filter id="filter-id-108" width="200%" height="200%" x="-50%" y="-50%"><feGaussianBlur result="blurOut" in="SourceGraphic" stdDeviation="1.5"/><feOffset result="offsetBlur" dx="1" dy="1"/><feFlood flood-color="#000000" flood-opacity="0.5"/><feComposite in2="offsetBlur" operator="in"/><feMerge><feMergeNode/><feMergeNode in="SourceGraphic"/></feMerge></filter><clipPath id="id-690"><rect width="666" height="426.66"/></clipPath><filter id="filter-id-43" width="120%" height="120%" x="-10%" y="-10%"><feColorMatrix type="saturate" values="0"/></filter><filter id="filter-id-29" width="200%" height="200%" x="-50%" y="-50%"><feGaussianBlur result="blurOut" in="SourceGraphic" stdDeviation="1.5"/><feOffset result="offsetBlur" dx="1" dy="1"/><feFlood flood-color="#000000" flood-opacity="0.5"/><feComposite in2="offsetBlur" operator="in"/><feMerge><feMergeNode/><feMergeNode in="SourceGraphic"/></feMerge></filter></defs><g xmlns="http://www.w3.org/2000/svg" clip-path="url(#id-5)" style=""><g><g role="region" aria-labelledby="id-51" opacity="1" aria-label="Chart"><g transform="translate(15,15)"><g fill="#000000" font-size="16" transform="translate(215.5,0)"><g id="id-51" style="user-select: none;"><text x="0" y="18.34375" dy="-3.669"><tspan>I am planning to go to the grocery store.</tspan></text></g></g><g transform="translate(0,48.34375)"><g><g><g><g><g><g transform="translate(52,0)" style="touch-action: none; user-select: none; -webkit-user-drag: none;"><g fill="#ffffff" fill-opacity="0"><rect width="666" height="426.66"/></g><g><g><g><g stroke="#000000" stroke-opacity="0.15" fill="none" transform="translate(0,304.8)"><path d=" M0,0  L666,0 " transform="translate(-0.5,-0.5)"/></g><g fill="#000000" fill-opacity="0" style="pointer-events: none;" display="none"><path d="M0,284.4 L0,304.8 L666,304.8 L666,284.4 L0,284.4"/></g><g stroke="#000000" stroke-opacity="0.15" fill="none" transform="translate(0,325.1)"><path d=" M0,0  L666,0 " transform="translate(-0.5,-0.5)"/></g><g fill="#000000" fill-opacity="0" style="pointer-events: none;"><path d="M0,304.8 L0,325.1 L666,325.1 L666,304.8 L0,304.8"/></g><g stroke="#000000" stroke-opacity="0.15" fill="none" transform="translate(0,426.7)"><path d=" M0,0  L666,0 " transform="translate(-0.5,-0.5)"/></g><g fill="#000000" fill-opacity="0" style="pointer-events: none;" display="none"><path d="M0,406.3 L0,426.66 L666,426.66 L666,406.3 L0,406.3"/></g><g stroke="#000000" stroke-opacity="0.15" fill="none" transform="translate(0,345.4)"><path d=" M0,0  L666,0 " transform="translate(-0.5,-0.5)"/></g><g fill="#000000" fill-opacity="0" style="pointer-events: none;" display="none"><path d="M0,325.1 L0,345.4 L666,345.4 L666,325.1 L0,325.1"/></g><g stroke="#000000" stroke-opacity="0.15" fill="none" transform="translate(0,365.7)"><path d=" M0,0  L666,0 " transform="translate(-0.5,-0.5)"/></g><g fill="#000000" fill-opacity="0" style="pointer-events: none;"><path d="M0,345.4 L0,365.7 L666,365.7 L666,345.4 L0,345.4"/></g><g stroke="#000000" stroke-opacity="0.15" fill="none" transform="translate(0,386)"><path d=" M0,0  L666,0 " transform="translate(-0.5,-0.5)"/></g><g fill="#000000" fill-opacity="0" style="pointer-events: none;" display="none"><path d="M0,365.7 L0,386 L666,386 L666,365.7 L0,365.7"/></g><g stroke="#000000" stroke-opacity="0.15" fill="none" transform="translate(0,406.3)"><path d=" M0,0  L666,0 " transform="translate(-0.5,-0.5)"/></g><g fill="#000000" fill-opacity="0" style="pointer-events: none;"><path d="M0,386 L0,406.3 L666,406.3 L666,386 L0,386"/></g><g stroke="#000000" stroke-opacity="0.15" fill="none" transform="translate(0,447)" display="none"><path d=" M0,0  L666,0 " transform="translate(-0.5,-0.5)"/></g><g fill="#000000" fill-opacity="0" style="pointer-events: none;"><path d="M0,426.66 L0,426.66 L666,426.66 L666,426.66 L0,426.66"/></g><g stroke="#000000" stroke-opacity="0.15" fill="none" transform="translate(0,467.3)" display="none"><path d=" M0,0  L666,0 " transform="translate(-0.5,-0.5)"/></g><g fill="#000000" fill-opacity="0" style="pointer-events: none;" display="none"><path d="M0,426.66 L0,426.66 L666,426.66 L666,426.66 L0,426.66"/></g><g stroke="#000000" stroke-opacity="0.15" fill="none" transform="translate(0,284.4)"><path d=" M0,0  L666,0 " transform="translate(-0.5,-0.5)"/></g><g fill="#000000" fill-opacity="0" style="pointer-events: none;"><path d="M0,264.1 L0,284.4 L666,284.4 L666,264.1 L0,264.1"/></g><g stroke="#000000" stroke-opacity="0.15" fill="none" transform="translate(0,264.1)"><path d=" M0,0  L666,0 " transform="translate(-0.5,-0.5)"/></g><g fill="#000000" fill-opacity="0" style="pointer-events: none;" display="none"><path d="M0,243.8 L0,264.1 L666,264.1 L666,243.8 L0,243.8"/></g><g stroke="#000000" stroke-opacity="0.15" fill="none" transform="translate(0,243.8)"><path d=" M0,0  L666,0 " transform="translate(-0.5,-0.5)"/></g><g fill="#000000" fill-opacity="0" style="pointer-events: none;"><path d="M0,223.5 L0,243.8 L666,243.8 L666,223.5 L0,223.5"/></g><g stroke="#000000" stroke-opacity="0.15" fill="none" transform="translate(0,223.5)"><path d=" M0,0  L666,0 " transform="translate(-0.5,-0.5)"/></g><g fill="#000000" fill-opacity="0" style="pointer-events: none;" display="none"><path d="M0,203.2 L0,223.5 L666,223.5 L666,203.2 L0,203.2"/></g><g stroke="#000000" stroke-opacity="0.15" fill="none" transform="translate(0,203.2)"><path d=" M0,0  L666,0 " transform="translate(-0.5,-0.5)"/></g><g fill="#000000" fill-opacity="0" style="pointer-events: none;"><path d="M0,182.9 L0,203.2 L666,203.2 L666,182.9 L0,182.9"/></g><g stroke="#000000" stroke-opacity="0.15" fill="none" transform="translate(0,182.9)"><path d=" M0,0  L666,0 " transform="translate(-0.5,-0.5)"/></g><g fill="#000000" fill-opacity="0" style="pointer-events: none;" display="none"><path d="M0,162.5 L0,182.9 L666,182.9 L666,162.5 L0,162.5"/></g><g stroke="#000000" stroke-opacity="0.15" fill="none" transform="translate(0,162.5)"><path d=" M0,0  L666,0 " transform="translate(-0.5,-0.5)"/></g><g fill="#000000" fill-opacity="0" style="pointer-events: none;"><path d="M0,142.2 L0,162.5 L666,162.5 L666,142.2 L0,142.2"/></g><g stroke="#000000" stroke-opacity="0.15" fill="none" transform="translate(0,142.2)"><path d=" M0,0  L666,0 " transform="translate(-0.5,-0.5)"/></g><g fill="#000000" fill-opacity="0" style="pointer-events: none;" display="none"><path d="M0,121.9 L0,142.2 L666,142.2 L666,121.9 L0,121.9"/></g><g stroke="#000000" stroke-opacity="0.15" fill="none" transform="translate(0,121.9)"><path d=" M0,0  L666,0 " transform="translate(-0.5,-0.5)"/></g><g fill="#000000" fill-opacity="0" style="pointer-events: none;"><path d="M0,101.6 L0,121.9 L666,121.9 L666,101.6 L0,101.6"/></g><g stroke="#000000" stroke-opacity="0.15" fill="none" transform="translate(0,101.6)"><path d=" M0,0  L666,0 " transform="translate(-0.5,-0.5)"/></g><g fill="#000000" fill-opacity="0" style="pointer-events: none;" display="none"><path d="M0,81.3 L0,101.6 L666,101.6 L666,81.3 L0,81.3"/></g><g stroke="#000000" stroke-opacity="0.15" fill="none" transform="translate(0,81.3)"><path d=" M0,0  L666,0 " transform="translate(-0.5,-0.5)"/></g><g fill="#000000" fill-opacity="0" style="pointer-events: none;"><path d="M0,61 L0,81.3 L666,81.3 L666,61 L0,61"/></g><g stroke="#000000" stroke-opacity="0.15" fill="none" transform="translate(0,61)"><path d=" M0,0  L666,0 " transform="translate(-0.5,-0.5)"/></g><g fill="#000000" fill-opacity="0" style="pointer-events: none;" display="none"><path d="M0,40.6 L0,61 L666,61 L666,40.6 L0,40.6"/></g><g stroke="#000000" stroke-opacity="0.15" fill="none" transform="translate(0,40.6)"><path d=" M0,0  L666,0 " transform="translate(-0.5,-0.5)"/></g><g fill="#000000" fill-opacity="0" style="pointer-events: none;"><path d="M0,20.3 L0,40.6 L666,40.6 L666,20.3 L0,20.3"/></g><g stroke="#000000" stroke-opacity="0.15" fill="none" transform="translate(0,20.3)"><path d=" M0,0  L666,0 " transform="translate(-0.5,-0.5)"/></g><g fill="#000000" fill-opacity="0" style="pointer-events: none;" display="none"><path d="M0,0 L0,20.3 L666,20.3 L666,0 L0,0"/></g><g stroke="#000000" stroke-opacity="0.15" fill="none"><path d=" M0,0  L666,0 " transform="translate(-0.5,-0.5)"/></g><g fill="#000000" fill-opacity="0" style="pointer-events: none;"><path d="M0,0 L0,0 L666,0 L666,0 L0,0"/></g><g stroke="#000000" stroke-opacity="0.15" fill="none" transform="translate(0,-20.3)" display="none"><path d=" M0,0  L666,0 " transform="translate(-0.5,-0.5)"/></g><g fill="#000000" fill-opacity="0" style="pointer-events: none;" display="none"><path d="M0,0 L0,0 L666,0 L666,0 L0,0"/></g></g></g><g><g><g stroke="#000000" stroke-opacity="0.15" fill="none"><path d=" M0,0  L0,426.66 " transform="translate(-0.5,-0.5)"/></g><g fill="#000000" fill-opacity="0" opacity="0" style="pointer-events: none;" display="none"><path d="M0,0 L0,426.66 L73.99926,426.66 L73.99926,0 L0,0"/></g><g stroke="#000000" stroke-opacity="0.15" fill="none" transform="translate(666,0)"><path d=" M0,0  L0,426.66 " transform="translate(-0.5,-0.5)"/></g><g fill="#000000" fill-opacity="0" opacity="0" style="pointer-events: none;" display="none"><path d="M666,0 L666,426.66 L666,426.66 L666,0 L666,0"/></g><g stroke="#000000" stroke-opacity="0.15" fill="none" transform="translate(73.99926,0)"><path d=" M0,0  L0,426.66 " transform="translate(-0.5,-0.5)"/></g><g fill="#000000" fill-opacity="0" opacity="1" style="pointer-events: none;"><path d="M73.99926,0 L73.99926,426.66 L147.99852,426.66 L147.99852,0 L73.99926,0"/></g><g stroke="#000000" stroke-opacity="0.15" fill="none" transform="translate(147.99852,0)"><path d=" M0,0  L0,426.66 " transform="translate(-0.5,-0.5)"/></g><g fill="#000000" fill-opacity="0" opacity="0" display="none" style="pointer-events: none;"><path d="M147.99852,0 L147.99852,426.66 L221.99778,426.66 L221.99778,0 L147.99852,0"/></g><g stroke="#000000" stroke-opacity="0.15" fill="none" transform="translate(221.99778,0)"><path d=" M0,0  L0,426.66 " transform="translate(-0.5,-0.5)"/></g><g fill="#000000" fill-opacity="0" opacity="1" style="pointer-events: none;"><path d="M221.99778,0 L221.99778,426.66 L295.99704,426.66 L295.99704,0 L221.99778,0"/></g><g stroke="#000000" stroke-opacity="0.15" fill="none" transform="translate(295.99704,0)"><path d=" M0,0  L0,426.66 " transform="translate(-0.5,-0.5)"/></g><g fill="#000000" fill-opacity="0" opacity="0" display="none" style="pointer-events: none;"><path d="M295.99704,0 L295.99704,426.66 L370.00296000000003,426.66 L370.00296000000003,0 L295.99704,0"/></g><g stroke="#000000" stroke-opacity="0.15" fill="none" transform="translate(370.00296000000003,0)"><path d=" M0,0  L0,426.66 " transform="translate(-0.5,-0.5)"/></g><g fill="#000000" fill-opacity="0" opacity="1" style="pointer-events: none;"><path d="M370.00296000000003,0 L370.00296000000003,426.66 L444.00221999999997,426.66 L444.00221999999997,0 L370.00296000000003,0"/></g><g stroke="#000000" stroke-opacity="0.15" fill="none" transform="translate(444.00221999999997,0)"><path d=" M0,0  L0,426.66 " transform="translate(-0.5,-0.5)"/></g><g fill="#000000" fill-opacity="0" opacity="0" display="none" style="pointer-events: none;"><path d="M444.00221999999997,0 L444.00221999999997,426.66 L518.00148,426.66 L518.00148,0 L444.00221999999997,0"/></g><g stroke="#000000" stroke-opacity="0.15" fill="none" transform="translate(518.00148,0)"><path d=" M0,0  L0,426.66 " transform="translate(-0.5,-0.5)"/></g><g fill="#000000" fill-opacity="0" opacity="1" style="pointer-events: none;"><path d="M518.00148,0 L518.00148,426.66 L592.00074,426.66 L592.00074,0 L518.00148,0"/></g><g stroke="#000000" stroke-opacity="0.15" fill="none" transform="translate(592.00074,0)"><path d=" M0,0  L0,426.66 " transform="translate(-0.5,-0.5)"/></g><g fill="#000000" fill-opacity="0" opacity="0" display="none" style="pointer-events: none;"><path d="M592.00074,0 L592.00074,426.66 L666,426.66 L666,0 L592.00074,0"/></g></g></g><g><g><g role="group" stroke-opacity="1" fill-opacity="0" fill="#67b7dc" stroke="#611aff" stroke-width="2" aria-label="openai" opacity="1"><g id="id-103"><g clip-path="url(#id-106)"><g><g><g><g fill="#67b7dc" fill-opacity="0" stroke="#611aff" stroke-opacity="1" stroke-width="2" style="pointer-events: none;"><g><g stroke-opacity="0"><path/></g><g fill-opacity="0"><path d=" M0,299.1  L0,299.1  L0,299.1  L73.9993,299.1  L73.9993,225.5  L147.9985,225.5  L147.9985,389.3  L221.9978,389.3  L221.9978,330.4  L295.997,330.4  L295.997,364.3  L370.003,364.3  L370.003,375.7  L444.0022,375.7  L444.0022,301.1  L518.0015,301.1  L518.0015,424.4  L592.0007,424.4  L592.0007,350.7  L666,350.7 "/></g></g></g></g></g></g></g></g></g><g role="group" stroke-opacity="1" fill-opacity="0" fill="#6794dc" stroke="#ff325a" stroke-width="2" aria-label="lstm" opacity="1"><g id="id-122"><g clip-path="url(#id-125)"><g><g><g><g fill="#6794dc" fill-opacity="0" stroke="#ff325a" stroke-opacity="1" stroke-width="2" style="pointer-events: none;"><g><g stroke-opacity="0"><path/></g><g fill-opacity="0"><path d=" M0,353.9  L0,353.9  L0,353.9  L73.9993,353.9  L73.9993,270.2  L147.9985,270.2  L147.9985,411.4  L221.9978,411.4  L221.9978,365.5  L295.997,365.5  L295.997,401.9  L370.003,401.9  L370.003,397.8  L444.0022,397.8  L444.0022,312.7  L518.0015,312.7  L518.0015,426.3  L592.0007,426.3  L592.0007,398.4  L666,398.4 "/></g></g></g></g></g></g></g></g></g></g></g><g clip-path="url(#id-690)"><g><g fill="#67b7dc" stroke="#611aff"><g><g focusable="true" opacity="1" transform="translate(37.00296,299.1)"><g><g fill="#611aff"><circle r="5"/></g></g></g><g focusable="true" opacity="1" transform="translate(111.00222000000001,225.5)"><g><g fill="#611aff"><circle r="5"/></g></g></g><g focusable="true" opacity="1" transform="translate(185.00148000000002,389.3)"><g><g fill="#611aff"><circle r="5"/></g></g></g><g focusable="true" opacity="1" transform="translate(259.00074,330.4)"><g><g fill="#611aff"><circle r="5"/></g></g></g><g focusable="true" opacity="1" transform="translate(333,364.3)"><g><g fill="#611aff"><circle r="5"/></g></g></g><g focusable="true" opacity="1" transform="translate(406.99926000000005,375.7)"><g><g fill="#611aff"><circle r="5"/></g></g></g><g focusable="true" opacity="1" transform="translate(480.99852,301.1)"><g><g fill="#611aff"><circle r="5"/></g></g></g><g focusable="true" opacity="1" transform="translate(554.99778,424.4)"><g><g fill="#611aff"><circle r="5"/></g></g></g><g focusable="true" opacity="1" transform="translate(628.99704,350.7)"><g><g fill="#611aff"><circle r="5"/></g></g></g></g></g><g fill="#6794dc" stroke="#ff325a"><g><g focusable="true" opacity="1" transform="translate(37.00296,353.9)"><g><g fill="#ff325a"><circle r="5"/></g></g></g><g focusable="true" opacity="1" transform="translate(111.00222000000001,270.2)"><g><g fill="#ff325a"><circle r="5"/></g></g></g><g focusable="true" opacity="1" transform="translate(185.00148000000002,411.4)"><g><g fill="#ff325a"><circle r="5"/></g></g></g><g focusable="true" opacity="1" transform="translate(259.00074,365.5)"><g><g fill="#ff325a"><circle r="5"/></g></g></g><g focusable="true" opacity="1" transform="translate(333,401.9)"><g><g fill="#ff325a"><circle r="5"/></g></g></g><g focusable="true" opacity="1" transform="translate(406.99926000000005,397.8)"><g><g fill="#ff325a"><circle r="5"/></g></g></g><g focusable="true" opacity="1" transform="translate(480.99852,312.7)"><g><g fill="#ff325a"><circle r="5"/></g></g></g><g focusable="true" opacity="1" transform="translate(554.99778,426.3)"><g><g fill="#ff325a"><circle r="5"/></g></g></g><g focusable="true" opacity="1" transform="translate(628.99704,398.4)"><g><g fill="#ff325a"><circle r="5"/></g></g></g></g></g></g></g><g><g/></g><g><g/></g><g opacity="0" style="touch-action: none; user-select: none; -webkit-user-drag: none;" visibility="hidden"><g><g fill-opacity="0.2" fill="#000000" style="pointer-events: none;" opacity="0" visibility="hidden"><path/></g><g stroke="#000000" fill="none" stroke-dasharray="3,3" stroke-opacity="0.4" style="pointer-events: none;" transform="translate(638.4,0)"><path d=" M0,0  L0,426.66 "/></g><g stroke="#000000" fill="none" stroke-dasharray="3,3" stroke-opacity="0.4" style="pointer-events: none;" transform="translate(0,0)"><path d=" M0,0  L666,0 "/></g></g></g><g role="button" focusable="true" opacity="0" visibility="hidden" transform="translate(626,-3)" aria-labelledby="id-20-title"><g fill="#6794dc" stroke="#ffffff" fill-opacity="1" stroke-opacity="0" transform="translate(0,8)"><path d="M17,0 L18,0 a17,17 0 0 1 17,17 L35,17 a17,17 0 0 1 -17,17 L17,34 a17,17 0 0 1 -17,-17 L0,17 a17,17 0 0 1 17,-17 Z"/></g><g transform="translate(9,9)"><g stroke="#ffffff" style="pointer-events: none;" transform="translate(0,8)"><path d=" M0,0  L11,0 " transform="translate(2.5,7.5)"/></g><g fill="#000000" style="pointer-events: none;" transform="translate(17,8)"><g display="none"/></g></g><title id="id-20-title">Zoom Out</title></g></g></g><g><g><g><g><g fill="#000000" transform="translate(0,284.83000000000004) rotate(-90)"><g style="user-select: none;"><text x="0" y="16" dy="-3.2"><tspan>Negative Loglikelihood</tspan></text></g></g><g stroke="#000000" stroke-opacity="0.15" fill="none" transform="translate(0,600)" opacity="0" visibility="hidden"><path transform="translate(-0.5,-0.5)" d=" M0,0  L748,0 "/></g><g transform="translate(16,0)"><g><g fill="#000000" fill-opacity="0" opacity="0" stroke-opacity="0" transform="translate(36,213.3)"><g transform="translate(-26,-8)" style="user-select: none;"><text x="0" y="16" dy="-3.2"><tspan>30</tspan></text></g></g><g fill-opacity="0" stroke-opacity="0" stroke="#000000" stroke-width="1" transform="translate(41,304.8)"><path d=" M0,0  L-5,0 " transform="translate(-0.5,-0.5)"/></g><g fill="#000000" transform="translate(36,304.8)"><g transform="translate(-18,-8)" style="user-select: none;"><text x="0" y="16" dy="-3.2"><tspan>6</tspan></text></g></g><g fill-opacity="0" stroke-opacity="0" stroke="#000000" stroke-width="1" transform="translate(41,325.1)"><path d=" M0,0  L-5,0 " transform="translate(-0.5,-0.5)"/></g><g fill="#000000" transform="translate(36,325.1)"><g transform="translate(-18,-8)" style="user-select: none;"><text x="0" y="16" dy="-3.2"><tspan>5</tspan></text></g></g><g fill-opacity="0" stroke-opacity="0" stroke="#000000" stroke-width="1" transform="translate(41,426.7)"><path d=" M0,0  L-5,0 " transform="translate(-0.5,-0.5)"/></g><g fill="#000000" transform="translate(36,426.7)"><g transform="translate(-18,-8)" style="user-select: none;"><text x="0" y="16" dy="-3.2"><tspan>0</tspan></text></g></g><g fill-opacity="0" stroke-opacity="0" stroke="#000000" stroke-width="1" transform="translate(41,345.4)"><path d=" M0,0  L-5,0 " transform="translate(-0.5,-0.5)"/></g><g fill="#000000" transform="translate(36,345.4)"><g transform="translate(-18,-8)" style="user-select: none;"><text x="0" y="16" dy="-3.2"><tspan>4</tspan></text></g></g><g fill-opacity="0" stroke-opacity="0" stroke="#000000" stroke-width="1" transform="translate(41,365.7)"><path d=" M0,0  L-5,0 " transform="translate(-0.5,-0.5)"/></g><g fill="#000000" transform="translate(36,365.7)"><g transform="translate(-18,-8)" style="user-select: none;"><text x="0" y="16" dy="-3.2"><tspan>3</tspan></text></g></g><g fill-opacity="0" stroke-opacity="0" stroke="#000000" stroke-width="1" transform="translate(41,386)"><path d=" M0,0  L-5,0 " transform="translate(-0.5,-0.5)"/></g><g fill="#000000" transform="translate(36,386)"><g transform="translate(-18,-8)" style="user-select: none;"><text x="0" y="16" dy="-3.2"><tspan>2</tspan></text></g></g><g fill-opacity="0" stroke-opacity="0" stroke="#000000" stroke-width="1" transform="translate(41,406.3)"><path d=" M0,0  L-5,0 " transform="translate(-0.5,-0.5)"/></g><g fill="#000000" transform="translate(36,406.3)"><g transform="translate(-18,-8)" style="user-select: none;"><text x="0" y="16" dy="-3.2"><tspan>1</tspan></text></g></g><g fill-opacity="0" stroke-opacity="0" stroke="#000000" stroke-width="1" transform="translate(41,447)" display="none"><path d=" M0,0  L-5,0 " transform="translate(-0.5,-0.5)"/></g><g fill="#000000" transform="translate(36,447)" display="none"><g transform="translate(-24,-8)" style="user-select: none;"><text x="0" y="16" dy="-3.2"><tspan>-1</tspan></text></g></g><g fill-opacity="0" stroke-opacity="0" stroke="#000000" stroke-width="1" transform="translate(41,467.3)" display="none"><path d=" M0,0  L-5,0 " transform="translate(-0.5,-0.5)"/></g><g fill="#000000" transform="translate(36,467.3)" display="none"><g transform="translate(-24,-8)" style="user-select: none;"><text x="0" y="16" dy="-3.2"><tspan>-2</tspan></text></g></g><g fill-opacity="0" stroke-opacity="0" stroke="#000000" stroke-width="1" transform="translate(41,284.4)"><path d=" M0,0  L-5,0 " transform="translate(-0.5,-0.5)"/></g><g fill="#000000" transform="translate(36,284.4)"><g transform="translate(-18,-8)" style="user-select: none;"><text x="0" y="16" dy="-3.2"><tspan>7</tspan></text></g></g><g fill-opacity="0" stroke-opacity="0" stroke="#000000" stroke-width="1" transform="translate(41,264.1)"><path d=" M0,0  L-5,0 " transform="translate(-0.5,-0.5)"/></g><g fill="#000000" transform="translate(36,264.1)"><g transform="translate(-18,-8)" style="user-select: none;"><text x="0" y="16" dy="-3.2"><tspan>8</tspan></text></g></g><g fill-opacity="0" stroke-opacity="0" stroke="#000000" stroke-width="1" transform="translate(41,243.8)"><path d=" M0,0  L-5,0 " transform="translate(-0.5,-0.5)"/></g><g fill="#000000" transform="translate(36,243.8)"><g transform="translate(-18,-8)" style="user-select: none;"><text x="0" y="16" dy="-3.2"><tspan>9</tspan></text></g></g><g fill-opacity="0" stroke-opacity="0" stroke="#000000" stroke-width="1" transform="translate(41,223.5)"><path d=" M0,0  L-5,0 " transform="translate(-0.5,-0.5)"/></g><g fill="#000000" transform="translate(36,223.5)"><g transform="translate(-26,-8)" style="user-select: none;"><text x="0" y="16" dy="-3.2"><tspan>10</tspan></text></g></g><g fill-opacity="0" stroke-opacity="0" stroke="#000000" stroke-width="1" transform="translate(41,203.2)"><path d=" M0,0  L-5,0 " transform="translate(-0.5,-0.5)"/></g><g fill="#000000" transform="translate(36,203.2)"><g transform="translate(-26,-8)" style="user-select: none;"><text x="0" y="16" dy="-3.2"><tspan>11</tspan></text></g></g><g fill-opacity="0" stroke-opacity="0" stroke="#000000" stroke-width="1" transform="translate(41,182.9)"><path d=" M0,0  L-5,0 " transform="translate(-0.5,-0.5)"/></g><g fill="#000000" transform="translate(36,182.9)"><g transform="translate(-26,-8)" style="user-select: none;"><text x="0" y="16" dy="-3.2"><tspan>12</tspan></text></g></g><g fill-opacity="0" stroke-opacity="0" stroke="#000000" stroke-width="1" transform="translate(41,162.5)"><path d=" M0,0  L-5,0 " transform="translate(-0.5,-0.5)"/></g><g fill="#000000" transform="translate(36,162.5)"><g transform="translate(-26,-8)" style="user-select: none;"><text x="0" y="16" dy="-3.2"><tspan>13</tspan></text></g></g><g fill-opacity="0" stroke-opacity="0" stroke="#000000" stroke-width="1" transform="translate(41,142.2)"><path d=" M0,0  L-5,0 " transform="translate(-0.5,-0.5)"/></g><g fill="#000000" transform="translate(36,142.2)"><g transform="translate(-26,-8)" style="user-select: none;"><text x="0" y="16" dy="-3.2"><tspan>14</tspan></text></g></g><g fill-opacity="0" stroke-opacity="0" stroke="#000000" stroke-width="1" transform="translate(41,121.9)"><path d=" M0,0  L-5,0 " transform="translate(-0.5,-0.5)"/></g><g fill="#000000" transform="translate(36,121.9)"><g transform="translate(-26,-8)" style="user-select: none;"><text x="0" y="16" dy="-3.2"><tspan>15</tspan></text></g></g><g fill-opacity="0" stroke-opacity="0" stroke="#000000" stroke-width="1" transform="translate(41,101.6)"><path d=" M0,0  L-5,0 " transform="translate(-0.5,-0.5)"/></g><g fill="#000000" transform="translate(36,101.6)"><g transform="translate(-26,-8)" style="user-select: none;"><text x="0" y="16" dy="-3.2"><tspan>16</tspan></text></g></g><g fill-opacity="0" stroke-opacity="0" stroke="#000000" stroke-width="1" transform="translate(41,81.3)"><path d=" M0,0  L-5,0 " transform="translate(-0.5,-0.5)"/></g><g fill="#000000" transform="translate(36,81.3)"><g transform="translate(-26,-8)" style="user-select: none;"><text x="0" y="16" dy="-3.2"><tspan>17</tspan></text></g></g><g fill-opacity="0" stroke-opacity="0" stroke="#000000" stroke-width="1" transform="translate(41,61)"><path d=" M0,0  L-5,0 " transform="translate(-0.5,-0.5)"/></g><g fill="#000000" transform="translate(36,61)"><g transform="translate(-26,-8)" style="user-select: none;"><text x="0" y="16" dy="-3.2"><tspan>18</tspan></text></g></g><g fill-opacity="0" stroke-opacity="0" stroke="#000000" stroke-width="1" transform="translate(41,40.6)"><path d=" M0,0  L-5,0 " transform="translate(-0.5,-0.5)"/></g><g fill="#000000" transform="translate(36,40.6)"><g transform="translate(-26,-8)" style="user-select: none;"><text x="0" y="16" dy="-3.2"><tspan>19</tspan></text></g></g><g fill-opacity="0" stroke-opacity="0" stroke="#000000" stroke-width="1" transform="translate(41,20.3)"><path d=" M0,0  L-5,0 " transform="translate(-0.5,-0.5)"/></g><g fill="#000000" transform="translate(36,20.3)"><g transform="translate(-26,-8)" style="user-select: none;"><text x="0" y="16" dy="-3.2"><tspan>20</tspan></text></g></g><g fill-opacity="0" stroke-opacity="0" stroke="#000000" stroke-width="1" transform="translate(41,0)"><path d=" M0,0  L-5,0 " transform="translate(-0.5,-0.5)"/></g><g fill="#000000" transform="translate(36,0)"><g transform="translate(-26,-8)" style="user-select: none;"><text x="0" y="16" dy="-3.2"><tspan>21</tspan></text></g></g><g fill-opacity="0" stroke-opacity="0" stroke="#000000" stroke-width="1" transform="translate(41,-20.3)" display="none"><path d=" M0,0  L-5,0 " transform="translate(-0.5,-0.5)"/></g><g fill="#000000" transform="translate(36,-20.3)" display="none"><g transform="translate(-26,-8)" style="user-select: none;"><text x="0" y="16" dy="-3.2"><tspan>22</tspan></text></g></g></g></g><g stroke="#000000" stroke-opacity="0" fill="none" style="pointer-events: none;" transform="translate(52,0)"><path d=" M0,0  L0,426.66 " transform="translate(-0.5,-0.5)"/></g></g></g></g></g><g transform="translate(718,0)"><g/></g></g></g><g><g transform="translate(52,0)"/></g><g transform="translate(0,426.66)"><g transform="translate(52,0)"><g><g><g stroke="#000000" stroke-opacity="0" fill="none" style="pointer-events: none;"><path d=" M0,0  L666,0 " transform="translate(-0.5,-0.5)"/></g><g stroke="#000000" stroke-opacity="0.15" fill="none" display="none" transform="translate(666,-426.66)" opacity="0" visibility="hidden"><path transform="translate(-0.5,-0.5)" d=" M0,0  L0,426.66 "/></g><g><g><g fill="#000000" fill-opacity="0" opacity="0" stroke-opacity="0" transform="translate(333,0)"><g transform="translate(-2,10)" style="user-select: none;"><text x="0" y="16" dy="-3.2"><tspan>|</tspan></text></g></g><g fill-opacity="0" stroke-opacity="0" stroke="#000000" stroke-width="1" transform="translate(36.99963,0)"><path d=" M0,0  L0,5 " transform="translate(-0.5,-0.5)"/></g><g fill="#000000" transform="translate(36.99963,0)"><g transform="translate(-16,10)" style="user-select: none;"><text x="0" y="16" dy="-3.2"><tspan>0:am</tspan></text></g></g><g fill-opacity="0" stroke-opacity="0" stroke="#000000" stroke-width="1" display="none" transform="translate(702.99963,0)"><path d=" M0,0  L0,5 " transform="translate(-0.5,-0.5)"/></g><g fill="#000000" display="none" transform="translate(702.99963,0)"><g transform="translate(0,10)" display="none"/></g><g fill-opacity="0" stroke-opacity="0" stroke="#000000" stroke-width="1" transform="translate(110.99889,0)"><path d=" M0,0  L0,5 " transform="translate(-0.5,-0.5)"/></g><g fill="#000000" transform="translate(110.99889,0)"><g transform="translate(-33,10)" style="user-select: none;"><text x="0" y="16" dy="-3.2"><tspan>1:planning</tspan></text></g></g><g fill-opacity="0" stroke-opacity="0" stroke="#000000" stroke-width="1" transform="translate(184.99815,0)"><path d=" M0,0  L0,5 " transform="translate(-0.5,-0.5)"/></g><g fill="#000000" transform="translate(184.99815,0)"><g transform="translate(-12.5,10)" style="user-select: none;"><text x="0" y="16" dy="-3.2"><tspan>2:to</tspan></text></g></g><g fill-opacity="0" stroke-opacity="0" stroke="#000000" stroke-width="1" transform="translate(258.99741,0)"><path d=" M0,0  L0,5 " transform="translate(-0.5,-0.5)"/></g><g fill="#000000" transform="translate(258.99741,0)"><g transform="translate(-14,10)" style="user-select: none;"><text x="0" y="16" dy="-3.2"><tspan>3:go</tspan></text></g></g><g fill-opacity="0" stroke-opacity="0" stroke="#000000" stroke-width="1" transform="translate(333,0)"><path d=" M0,0  L0,5 " transform="translate(-0.5,-0.5)"/></g><g fill="#000000" transform="translate(333,0)"><g transform="translate(-12.5,10)" style="user-select: none;"><text x="0" y="16" dy="-3.2"><tspan>4:to</tspan></text></g></g><g fill-opacity="0" stroke-opacity="0" stroke="#000000" stroke-width="1" transform="translate(407.00259000000005,0)"><path d=" M0,0  L0,5 " transform="translate(-0.5,-0.5)"/></g><g fill="#000000" transform="translate(407.00259000000005,0)"><g transform="translate(-16,10)" style="user-select: none;"><text x="0" y="16" dy="-3.2"><tspan>5:the</tspan></text></g></g><g fill-opacity="0" stroke-opacity="0" stroke="#000000" stroke-width="1" transform="translate(481.00185,0)"><path d=" M0,0  L0,5 " transform="translate(-0.5,-0.5)"/></g><g fill="#000000" transform="translate(481.00185,0)"><g transform="translate(-29.5,10)" style="user-select: none;"><text x="0" y="16" dy="-3.2"><tspan>6:grocery</tspan></text></g></g><g fill-opacity="0" stroke-opacity="0" stroke="#000000" stroke-width="1" transform="translate(555.0011099999999,0)"><path d=" M0,0  L0,5 " transform="translate(-0.5,-0.5)"/></g><g fill="#000000" transform="translate(555.0011099999999,0)"><g transform="translate(-22,10)" style="user-select: none;"><text x="0" y="16" dy="-3.2"><tspan>7:store</tspan></text></g></g><g fill-opacity="0" stroke-opacity="0" stroke="#000000" stroke-width="1" transform="translate(629.00037,0)"><path d=" M0,0  L0,5 " transform="translate(-0.5,-0.5)"/></g><g fill="#000000" transform="translate(629.00037,0)"><g transform="translate(-8,10)" style="user-select: none;"><text x="0" y="16" dy="-3.2"><tspan>8:.</tspan></text></g></g></g></g><g fill="#000000" transform="translate(304,36)"><g style="user-select: none;"><text x="0" y="16" dy="-3.2"><tspan>Timestep</tspan></text></g></g></g></g></g></g></g></g><g role="group" aria-label="Legend" transform="translate(0,478.66)"><g><g focusable="true" role="checkbox" aria-controls="id-103" aria-labelledby="id-103" aria-checked="true" transform="translate(281,0)" style="cursor: pointer;"><g fill="#ffffff" fill-opacity="0"><rect width="76" height="43"/></g><g transform="translate(0,10)"><g fill="#67b7dc" style="pointer-events: none;"><g fill="#ffffff" fill-opacity="0" stroke-opacity="0" stroke="#999999"><rect width="23" height="23"/></g><g><g fill="#67b7dc" fill-opacity="0" stroke="#611aff" stroke-opacity="1" stroke-width="2" transform="translate(0,11.5)"><line x1="0" y1="0" x2="23" y2="0" transform="translate(-0.5,-0.5)"/></g><g focusable="true" fill="#67b7dc" stroke="#611aff" transform="translate(11.5,11.5)"><g><g fill="#611aff"><circle r="5"/></g></g></g></g></g><g fill="#000000" style="pointer-events: none;" transform="translate(28,3.5)"><g style="user-select: none;"><text x="0" y="16" dy="-3.2"><tspan>openai</tspan></text></g></g><g fill="#000000" style="pointer-events: none;" display="none"><g display="none"/></g></g></g><g focusable="true" role="checkbox" aria-controls="id-122" aria-labelledby="id-122" aria-checked="true" transform="translate(367,0)" style="cursor: pointer;"><g fill="#ffffff" fill-opacity="0"><rect width="60" height="43"/></g><g transform="translate(0,10)"><g fill="#6794dc" style="pointer-events: none;"><g fill="#ffffff" fill-opacity="0" stroke-opacity="0" stroke="#999999"><rect width="23" height="23"/></g><g><g fill="#6794dc" fill-opacity="0" stroke="#ff325a" stroke-opacity="1" stroke-width="2" transform="translate(0,11.5)"><line x1="0" y1="0" x2="23" y2="0" transform="translate(-0.5,-0.5)"/></g><g focusable="true" fill="#6794dc" stroke="#ff325a" transform="translate(11.5,11.5)"><g><g fill="#ff325a"><circle r="5"/></g></g></g></g></g><g fill="#000000" style="pointer-events: none;" transform="translate(28,3.5)"><g style="user-select: none;"><text x="0" y="16" dy="-3.2"><tspan>lstm</tspan></text></g></g><g fill="#000000" style="pointer-events: none;" display="none"><g display="none"/></g></g></g></g></g></g></g></g></g></g></g></svg>