<?xml version="1.0" encoding="utf-8"?><svg width="748px" height="600px"  style="font-family: Helvetica Neue, Helvetica, Arial, sans-serif;font-size: 14px;" version="1.1" xmlns="http://www.w3.org/2000/svg" xmlns:xlink="http://www.w3.org/1999/xlink"><defs xmlns="http://www.w3.org/2000/svg"><clipPath id="id-5"><rect width="748" height="600"/></clipPath><linearGradient id="gradient-id-46" x1="1%" x2="99%" y1="59%" y2="41%"><stop stop-color="#474758" offset="0"/><stop stop-color="#474758" stop-opacity="1" offset="0.75"/><stop stop-color="#3cabff" stop-opacity="1" offset="0.755"/></linearGradient><filter id="filter-id-54" width="200%" height="200%" x="-50%" y="-50%"/><filter id="filter-id-74" width="200%" height="200%" x="-50%" y="-50%"/><clipPath id="id-106"><path d="M0,0 L666,0 L666,427 L0,427 L0,0"/></clipPath><clipPath id="id-125"><path d="M0,0 L666,0 L666,427 L0,427 L0,0"/></clipPath><filter id="filter-id-127" width="200%" height="200%" x="-50%" y="-50%"><feGaussianBlur result="blurOut" in="SourceGraphic" stdDeviation="1.5"/><feOffset result="offsetBlur" dx="1" dy="1"/><feFlood flood-color="#000000" flood-opacity="0.5"/><feComposite in2="offsetBlur" operator="in"/><feMerge><feMergeNode/><feMergeNode in="SourceGraphic"/></feMerge></filter><filter id="filter-id-108" width="200%" height="200%" x="-50%" y="-50%"><feGaussianBlur result="blurOut" in="SourceGraphic" stdDeviation="1.5"/><feOffset result="offsetBlur" dx="1" dy="1"/><feFlood flood-color="#000000" flood-opacity="0.5"/><feComposite in2="offsetBlur" operator="in"/><feMerge><feMergeNode/><feMergeNode in="SourceGraphic"/></feMerge></filter><clipPath id="id-434"><rect width="666" height="427"/></clipPath><filter id="filter-id-43" width="120%" height="120%" x="-10%" y="-10%"><feColorMatrix type="saturate" values="0"/></filter><filter id="filter-id-29" width="200%" height="200%" x="-50%" y="-50%"><feGaussianBlur result="blurOut" in="SourceGraphic" stdDeviation="1.5"/><feOffset result="offsetBlur" dx="1" dy="1"/><feFlood flood-color="#000000" flood-opacity="0.5"/><feComposite in2="offsetBlur" operator="in"/><feMerge><feMergeNode/><feMergeNode in="SourceGraphic"/></feMerge></filter></defs><g xmlns="http://www.w3.org/2000/svg" clip-path="url(#id-5)" style=""><g><g role="region" aria-labelledby="id-51" opacity="1" aria-label="Chart"><g transform="translate(15,15)"><g fill="#000000" font-size="16" transform="translate(312.5,0)"><g id="id-51" style="user-select: none;"><text x="0" y="18" dy="-3.6"><tspan>I don't know.</tspan></text></g></g><g transform="translate(0,48)"><g><g><g><g><g><g transform="translate(52,0)" style="touch-action: none; user-select: none; -webkit-user-drag: none;"><g fill="#ffffff" fill-opacity="0"><rect width="666" height="427"/></g><g><g><g><g stroke="#000000" stroke-opacity="0.15" fill="none" transform="translate(0,305)"><path d=" M0,0  L666,0 " transform="translate(-0.5,-0.5)"/></g><g fill="#000000" fill-opacity="0" style="pointer-events: none;" display="none"><path d="M0,284.7 L0,305 L666,305 L666,284.7 L0,284.7"/></g><g stroke="#000000" stroke-opacity="0.15" fill="none" transform="translate(0,325.3)"><path d=" M0,0  L666,0 " transform="translate(-0.5,-0.5)"/></g><g fill="#000000" fill-opacity="0" style="pointer-events: none;"><path d="M0,305 L0,325.3 L666,325.3 L666,305 L0,305"/></g><g stroke="#000000" stroke-opacity="0.15" fill="none" transform="translate(0,427)"><path d=" M0,0  L666,0 " transform="translate(-0.5,-0.5)"/></g><g fill="#000000" fill-opacity="0" style="pointer-events: none;" display="none"><path d="M0,406.7 L0,427 L666,427 L666,406.7 L0,406.7"/></g><g stroke="#000000" stroke-opacity="0.15" fill="none" transform="translate(0,345.7)"><path d=" M0,0  L666,0 " transform="translate(-0.5,-0.5)"/></g><g fill="#000000" fill-opacity="0" style="pointer-events: none;" display="none"><path d="M0,325.3 L0,345.7 L666,345.7 L666,325.3 L0,325.3"/></g><g stroke="#000000" stroke-opacity="0.15" fill="none" transform="translate(0,366)"><path d=" M0,0  L666,0 " transform="translate(-0.5,-0.5)"/></g><g fill="#000000" fill-opacity="0" style="pointer-events: none;"><path d="M0,345.7 L0,366 L666,366 L666,345.7 L0,345.7"/></g><g stroke="#000000" stroke-opacity="0.15" fill="none" transform="translate(0,386.3)"><path d=" M0,0  L666,0 " transform="translate(-0.5,-0.5)"/></g><g fill="#000000" fill-opacity="0" style="pointer-events: none;" display="none"><path d="M0,366 L0,386.3 L666,386.3 L666,366 L0,366"/></g><g stroke="#000000" stroke-opacity="0.15" fill="none" transform="translate(0,406.7)"><path d=" M0,0  L666,0 " transform="translate(-0.5,-0.5)"/></g><g fill="#000000" fill-opacity="0" style="pointer-events: none;"><path d="M0,386.3 L0,406.7 L666,406.7 L666,386.3 L0,386.3"/></g><g stroke="#000000" stroke-opacity="0.15" fill="none" transform="translate(0,447.3)" display="none"><path d=" M0,0  L666,0 " transform="translate(-0.5,-0.5)"/></g><g fill="#000000" fill-opacity="0" style="pointer-events: none;"><path d="M0,427 L0,427 L666,427 L666,427 L0,427"/></g><g stroke="#000000" stroke-opacity="0.15" fill="none" transform="translate(0,467.7)" display="none"><path d=" M0,0  L666,0 " transform="translate(-0.5,-0.5)"/></g><g fill="#000000" fill-opacity="0" style="pointer-events: none;" display="none"><path d="M0,427 L0,427 L666,427 L666,427 L0,427"/></g><g stroke="#000000" stroke-opacity="0.15" fill="none" transform="translate(0,284.7)"><path d=" M0,0  L666,0 " transform="translate(-0.5,-0.5)"/></g><g fill="#000000" fill-opacity="0" style="pointer-events: none;"><path d="M0,264.3 L0,284.7 L666,284.7 L666,264.3 L0,264.3"/></g><g stroke="#000000" stroke-opacity="0.15" fill="none" transform="translate(0,264.3)"><path d=" M0,0  L666,0 " transform="translate(-0.5,-0.5)"/></g><g fill="#000000" fill-opacity="0" style="pointer-events: none;" display="none"><path d="M0,244 L0,264.3 L666,264.3 L666,244 L0,244"/></g><g stroke="#000000" stroke-opacity="0.15" fill="none" transform="translate(0,244)"><path d=" M0,0  L666,0 " transform="translate(-0.5,-0.5)"/></g><g fill="#000000" fill-opacity="0" style="pointer-events: none;"><path d="M0,223.7 L0,244 L666,244 L666,223.7 L0,223.7"/></g><g stroke="#000000" stroke-opacity="0.15" fill="none" transform="translate(0,223.7)"><path d=" M0,0  L666,0 " transform="translate(-0.5,-0.5)"/></g><g fill="#000000" fill-opacity="0" style="pointer-events: none;" display="none"><path d="M0,203.3 L0,223.7 L666,223.7 L666,203.3 L0,203.3"/></g><g stroke="#000000" stroke-opacity="0.15" fill="none" transform="translate(0,203.3)"><path d=" M0,0  L666,0 " transform="translate(-0.5,-0.5)"/></g><g fill="#000000" fill-opacity="0" style="pointer-events: none;"><path d="M0,183 L0,203.3 L666,203.3 L666,183 L0,183"/></g><g stroke="#000000" stroke-opacity="0.15" fill="none" transform="translate(0,183)"><path d=" M0,0  L666,0 " transform="translate(-0.5,-0.5)"/></g><g fill="#000000" fill-opacity="0" style="pointer-events: none;" display="none"><path d="M0,162.7 L0,183 L666,183 L666,162.7 L0,162.7"/></g><g stroke="#000000" stroke-opacity="0.15" fill="none" transform="translate(0,162.7)"><path d=" M0,0  L666,0 " transform="translate(-0.5,-0.5)"/></g><g fill="#000000" fill-opacity="0" style="pointer-events: none;"><path d="M0,142.3 L0,162.7 L666,162.7 L666,142.3 L0,142.3"/></g><g stroke="#000000" stroke-opacity="0.15" fill="none" transform="translate(0,142.3)"><path d=" M0,0  L666,0 " transform="translate(-0.5,-0.5)"/></g><g fill="#000000" fill-opacity="0" style="pointer-events: none;" display="none"><path d="M0,122 L0,142.3 L666,142.3 L666,122 L0,122"/></g><g stroke="#000000" stroke-opacity="0.15" fill="none" transform="translate(0,122)"><path d=" M0,0  L666,0 " transform="translate(-0.5,-0.5)"/></g><g fill="#000000" fill-opacity="0" style="pointer-events: none;"><path d="M0,101.7 L0,122 L666,122 L666,101.7 L0,101.7"/></g><g stroke="#000000" stroke-opacity="0.15" fill="none" transform="translate(0,101.7)"><path d=" M0,0  L666,0 " transform="translate(-0.5,-0.5)"/></g><g fill="#000000" fill-opacity="0" style="pointer-events: none;" display="none"><path d="M0,81.3 L0,101.7 L666,101.7 L666,81.3 L0,81.3"/></g><g stroke="#000000" stroke-opacity="0.15" fill="none" transform="translate(0,81.3)"><path d=" M0,0  L666,0 " transform="translate(-0.5,-0.5)"/></g><g fill="#000000" fill-opacity="0" style="pointer-events: none;"><path d="M0,61 L0,81.3 L666,81.3 L666,61 L0,61"/></g><g stroke="#000000" stroke-opacity="0.15" fill="none" transform="translate(0,61)"><path d=" M0,0  L666,0 " transform="translate(-0.5,-0.5)"/></g><g fill="#000000" fill-opacity="0" style="pointer-events: none;" display="none"><path d="M0,40.7 L0,61 L666,61 L666,40.7 L0,40.7"/></g><g stroke="#000000" stroke-opacity="0.15" fill="none" transform="translate(0,40.7)"><path d=" M0,0  L666,0 " transform="translate(-0.5,-0.5)"/></g><g fill="#000000" fill-opacity="0" style="pointer-events: none;"><path d="M0,20.3 L0,40.7 L666,40.7 L666,20.3 L0,20.3"/></g><g stroke="#000000" stroke-opacity="0.15" fill="none" transform="translate(0,20.3)"><path d=" M0,0  L666,0 " transform="translate(-0.5,-0.5)"/></g><g fill="#000000" fill-opacity="0" style="pointer-events: none;" display="none"><path d="M0,0 L0,20.3 L666,20.3 L666,0 L0,0"/></g><g stroke="#000000" stroke-opacity="0.15" fill="none"><path d=" M0,0  L666,0 " transform="translate(-0.5,-0.5)"/></g><g fill="#000000" fill-opacity="0" style="pointer-events: none;"><path d="M0,0 L0,0 L666,0 L666,0 L0,0"/></g><g stroke="#000000" stroke-opacity="0.15" fill="none" transform="translate(0,-20.3)" display="none"><path d=" M0,0  L666,0 " transform="translate(-0.5,-0.5)"/></g><g fill="#000000" fill-opacity="0" style="pointer-events: none;" display="none"><path d="M0,0 L0,0 L666,0 L666,0 L0,0"/></g></g></g><g><g><g stroke="#000000" stroke-opacity="0.15" fill="none"><path d=" M0,0  L0,427 " transform="translate(-0.5,-0.5)"/></g><g fill="#000000" fill-opacity="0" opacity="0" style="pointer-events: none;" display="none"><path d="M0,0 L0,427 L166.5,427 L166.5,0 L0,0"/></g><g stroke="#000000" stroke-opacity="0.15" fill="none" transform="translate(666,0)"><path d=" M0,0  L0,427 " transform="translate(-0.5,-0.5)"/></g><g fill="#000000" fill-opacity="0" opacity="1" style="pointer-events: none;"><path d="M666,0 L666,427 L666,427 L666,0 L666,0"/></g><g stroke="#000000" stroke-opacity="0.15" fill="none" transform="translate(166.5,0)"><path d=" M0,0  L0,427 " transform="translate(-0.5,-0.5)"/></g><g fill="#000000" fill-opacity="0" opacity="1" style="pointer-events: none;"><path d="M166.5,0 L166.5,427 L333,427 L333,0 L166.5,0"/></g><g stroke="#000000" stroke-opacity="0.15" fill="none" transform="translate(333,0)"><path d=" M0,0  L0,427 " transform="translate(-0.5,-0.5)"/></g><g fill="#000000" fill-opacity="0" opacity="0" display="none" style="pointer-events: none;"><path d="M333,0 L333,427 L499.5,427 L499.5,0 L333,0"/></g><g stroke="#000000" stroke-opacity="0.15" fill="none" transform="translate(499.5,0)"><path d=" M0,0  L0,427 " transform="translate(-0.5,-0.5)"/></g><g fill="#000000" fill-opacity="0" opacity="1" style="pointer-events: none;"><path d="M499.5,0 L499.5,427 L666,427 L666,0 L499.5,0"/></g></g></g><g><g><g role="group" stroke-opacity="1" fill-opacity="0" fill="#67b7dc" stroke="#611aff" stroke-width="2" aria-label="openai" opacity="1"><g id="id-103"><g clip-path="url(#id-106)"><g><g><g><g fill="#67b7dc" fill-opacity="0" stroke="#611aff" stroke-opacity="1" stroke-width="2" style="pointer-events: none;"><g><g stroke-opacity="0"><path/></g><g fill-opacity="0"><path d=" M0,319.2  L0,319.2  L0,319.2  L166.5,319.2  L166.5,403.8  L333,403.8  L333,356.4  L499.5,356.4  L499.5,364  L666,364 "/></g></g></g></g></g></g></g></g></g><g role="group" stroke-opacity="1" fill-opacity="0" fill="#6794dc" stroke="#ff325a" stroke-width="2" aria-label="lstm" opacity="1"><g id="id-122"><g clip-path="url(#id-125)"><g><g><g><g fill="#6794dc" fill-opacity="0" stroke="#ff325a" stroke-opacity="1" stroke-width="2" style="pointer-events: none;"><g><g stroke-opacity="0"><path/></g><g fill-opacity="0"><path d=" M0,356.4  L0,356.4  L0,356.4  L166.5,356.4  L166.5,425  L333,425  L333,406.9  L499.5,406.9  L499.5,390  L666,390 "/></g></g></g></g></g></g></g></g></g></g></g><g clip-path="url(#id-434)"><g><g fill="#67b7dc" stroke="#611aff"><g><g focusable="true" opacity="1" transform="translate(83.25,319.2)"><g><g fill="#611aff"><circle r="5"/></g></g></g><g focusable="true" opacity="1" transform="translate(249.75,403.8)"><g><g fill="#611aff"><circle r="5"/></g></g></g><g focusable="true" opacity="1" transform="translate(416.25,356.4)"><g><g fill="#611aff"><circle r="5"/></g></g></g><g focusable="true" opacity="1" transform="translate(582.75,364)"><g><g fill="#611aff"><circle r="5"/></g></g></g></g></g><g fill="#6794dc" stroke="#ff325a"><g><g focusable="true" opacity="1" transform="translate(83.25,356.4)"><g><g fill="#ff325a"><circle r="5"/></g></g></g><g focusable="true" opacity="1" transform="translate(249.75,425)"><g><g fill="#ff325a"><circle r="5"/></g></g></g><g focusable="true" opacity="1" transform="translate(416.25,406.9)"><g><g fill="#ff325a"><circle r="5"/></g></g></g><g focusable="true" opacity="1" transform="translate(582.75,390)"><g><g fill="#ff325a"><circle r="5"/></g></g></g></g></g></g></g><g><g/></g><g><g/></g><g opacity="0" style="touch-action: none; user-select: none; -webkit-user-drag: none;" visibility="hidden"><g><g fill-opacity="0.2" fill="#000000" style="pointer-events: none;" opacity="0" visibility="hidden"><path/></g><g stroke="#000000" fill="none" stroke-dasharray="3,3" stroke-opacity="0.4" style="pointer-events: none;" transform="translate(666,0)"><path d=" M0,0  L0,427 "/></g><g stroke="#000000" fill="none" stroke-dasharray="3,3" stroke-opacity="0.4" style="pointer-events: none;" transform="translate(0,0)"><path d=" M0,0  L666,0 "/></g></g></g><g role="button" focusable="true" opacity="0" visibility="hidden" transform="translate(626,-3)" aria-labelledby="id-20-title"><g fill="#6794dc" stroke="#ffffff" fill-opacity="1" stroke-opacity="0" transform="translate(0,8)"><path d="M17,0 L18,0 a17,17 0 0 1 17,17 L35,17 a17,17 0 0 1 -17,17 L17,34 a17,17 0 0 1 -17,-17 L0,17 a17,17 0 0 1 17,-17 Z"/></g><g transform="translate(9,9)"><g stroke="#ffffff" style="pointer-events: none;" transform="translate(0,8)"><path d=" M0,0  L11,0 " transform="translate(2.5,7.5)"/></g><g fill="#000000" style="pointer-events: none;" transform="translate(17,8)"><g display="none"/></g></g><title id="id-20-title">Zoom Out</title></g></g></g><g><g><g><g><g fill="#000000" transform="translate(0,285) rotate(-90)"><g style="user-select: none;"><text x="0" y="16" dy="-3.2"><tspan>Negative Loglikelihood</tspan></text></g></g><g stroke="#000000" stroke-opacity="0.15" fill="none" transform="translate(52,427)" opacity="1"><path transform="translate(-0.5,-0.5)" d=" M0,0  L666,0 "/></g><g transform="translate(16,0)"><g><g fill="#000000" fill-opacity="0" opacity="0" stroke-opacity="0" transform="translate(36,213.5)"><g transform="translate(-26,-8)" style="user-select: none;"><text x="0" y="16" dy="-3.2"><tspan>30</tspan></text></g></g><g fill-opacity="0" stroke-opacity="0" stroke="#000000" stroke-width="1" transform="translate(41,305)"><path d=" M0,0  L-5,0 " transform="translate(-0.5,-0.5)"/></g><g fill="#000000" transform="translate(36,305)"><g transform="translate(-18,-8)" style="user-select: none;"><text x="0" y="16" dy="-3.2"><tspan>6</tspan></text></g></g><g fill-opacity="0" stroke-opacity="0" stroke="#000000" stroke-width="1" transform="translate(41,325.3)"><path d=" M0,0  L-5,0 " transform="translate(-0.5,-0.5)"/></g><g fill="#000000" transform="translate(36,325.3)"><g transform="translate(-18,-8)" style="user-select: none;"><text x="0" y="16" dy="-3.2"><tspan>5</tspan></text></g></g><g fill-opacity="0" stroke-opacity="0" stroke="#000000" stroke-width="1" transform="translate(41,427)"><path d=" M0,0  L-5,0 " transform="translate(-0.5,-0.5)"/></g><g fill="#000000" transform="translate(36,427)"><g transform="translate(-18,-8)" style="user-select: none;"><text x="0" y="16" dy="-3.2"><tspan>0</tspan></text></g></g><g fill-opacity="0" stroke-opacity="0" stroke="#000000" stroke-width="1" transform="translate(41,345.7)"><path d=" M0,0  L-5,0 " transform="translate(-0.5,-0.5)"/></g><g fill="#000000" transform="translate(36,345.7)"><g transform="translate(-18,-8)" style="user-select: none;"><text x="0" y="16" dy="-3.2"><tspan>4</tspan></text></g></g><g fill-opacity="0" stroke-opacity="0" stroke="#000000" stroke-width="1" transform="translate(41,366)"><path d=" M0,0  L-5,0 " transform="translate(-0.5,-0.5)"/></g><g fill="#000000" transform="translate(36,366)"><g transform="translate(-18,-8)" style="user-select: none;"><text x="0" y="16" dy="-3.2"><tspan>3</tspan></text></g></g><g fill-opacity="0" stroke-opacity="0" stroke="#000000" stroke-width="1" transform="translate(41,386.3)"><path d=" M0,0  L-5,0 " transform="translate(-0.5,-0.5)"/></g><g fill="#000000" transform="translate(36,386.3)"><g transform="translate(-18,-8)" style="user-select: none;"><text x="0" y="16" dy="-3.2"><tspan>2</tspan></text></g></g><g fill-opacity="0" stroke-opacity="0" stroke="#000000" stroke-width="1" transform="translate(41,406.7)"><path d=" M0,0  L-5,0 " transform="translate(-0.5,-0.5)"/></g><g fill="#000000" transform="translate(36,406.7)"><g transform="translate(-18,-8)" style="user-select: none;"><text x="0" y="16" dy="-3.2"><tspan>1</tspan></text></g></g><g fill-opacity="0" stroke-opacity="0" stroke="#000000" stroke-width="1" transform="translate(41,447.3)" display="none"><path d=" M0,0  L-5,0 " transform="translate(-0.5,-0.5)"/></g><g fill="#000000" transform="translate(36,447.3)" display="none"><g transform="translate(-24,-8)" style="user-select: none;"><text x="0" y="16" dy="-3.2"><tspan>-1</tspan></text></g></g><g fill-opacity="0" stroke-opacity="0" stroke="#000000" stroke-width="1" transform="translate(41,467.7)" display="none"><path d=" M0,0  L-5,0 " transform="translate(-0.5,-0.5)"/></g><g fill="#000000" transform="translate(36,467.7)" display="none"><g transform="translate(-24,-8)" style="user-select: none;"><text x="0" y="16" dy="-3.2"><tspan>-2</tspan></text></g></g><g fill-opacity="0" stroke-opacity="0" stroke="#000000" stroke-width="1" transform="translate(41,284.7)"><path d=" M0,0  L-5,0 " transform="translate(-0.5,-0.5)"/></g><g fill="#000000" transform="translate(36,284.7)"><g transform="translate(-18,-8)" style="user-select: none;"><text x="0" y="16" dy="-3.2"><tspan>7</tspan></text></g></g><g fill-opacity="0" stroke-opacity="0" stroke="#000000" stroke-width="1" transform="translate(41,264.3)"><path d=" M0,0  L-5,0 " transform="translate(-0.5,-0.5)"/></g><g fill="#000000" transform="translate(36,264.3)"><g transform="translate(-18,-8)" style="user-select: none;"><text x="0" y="16" dy="-3.2"><tspan>8</tspan></text></g></g><g fill-opacity="0" stroke-opacity="0" stroke="#000000" stroke-width="1" transform="translate(41,244)"><path d=" M0,0  L-5,0 " transform="translate(-0.5,-0.5)"/></g><g fill="#000000" transform="translate(36,244)"><g transform="translate(-18,-8)" style="user-select: none;"><text x="0" y="16" dy="-3.2"><tspan>9</tspan></text></g></g><g fill-opacity="0" stroke-opacity="0" stroke="#000000" stroke-width="1" transform="translate(41,223.7)"><path d=" M0,0  L-5,0 " transform="translate(-0.5,-0.5)"/></g><g fill="#000000" transform="translate(36,223.7)"><g transform="translate(-26,-8)" style="user-select: none;"><text x="0" y="16" dy="-3.2"><tspan>10</tspan></text></g></g><g fill-opacity="0" stroke-opacity="0" stroke="#000000" stroke-width="1" transform="translate(41,203.3)"><path d=" M0,0  L-5,0 " transform="translate(-0.5,-0.5)"/></g><g fill="#000000" transform="translate(36,203.3)"><g transform="translate(-26,-8)" style="user-select: none;"><text x="0" y="16" dy="-3.2"><tspan>11</tspan></text></g></g><g fill-opacity="0" stroke-opacity="0" stroke="#000000" stroke-width="1" transform="translate(41,183)"><path d=" M0,0  L-5,0 " transform="translate(-0.5,-0.5)"/></g><g fill="#000000" transform="translate(36,183)"><g transform="translate(-26,-8)" style="user-select: none;"><text x="0" y="16" dy="-3.2"><tspan>12</tspan></text></g></g><g fill-opacity="0" stroke-opacity="0" stroke="#000000" stroke-width="1" transform="translate(41,162.7)"><path d=" M0,0  L-5,0 " transform="translate(-0.5,-0.5)"/></g><g fill="#000000" transform="translate(36,162.7)"><g transform="translate(-26,-8)" style="user-select: none;"><text x="0" y="16" dy="-3.2"><tspan>13</tspan></text></g></g><g fill-opacity="0" stroke-opacity="0" stroke="#000000" stroke-width="1" transform="translate(41,142.3)"><path d=" M0,0  L-5,0 " transform="translate(-0.5,-0.5)"/></g><g fill="#000000" transform="translate(36,142.3)"><g transform="translate(-26,-8)" style="user-select: none;"><text x="0" y="16" dy="-3.2"><tspan>14</tspan></text></g></g><g fill-opacity="0" stroke-opacity="0" stroke="#000000" stroke-width="1" transform="translate(41,122)"><path d=" M0,0  L-5,0 " transform="translate(-0.5,-0.5)"/></g><g fill="#000000" transform="translate(36,122)"><g transform="translate(-26,-8)" style="user-select: none;"><text x="0" y="16" dy="-3.2"><tspan>15</tspan></text></g></g><g fill-opacity="0" stroke-opacity="0" stroke="#000000" stroke-width="1" transform="translate(41,101.7)"><path d=" M0,0  L-5,0 " transform="translate(-0.5,-0.5)"/></g><g fill="#000000" transform="translate(36,101.7)"><g transform="translate(-26,-8)" style="user-select: none;"><text x="0" y="16" dy="-3.2"><tspan>16</tspan></text></g></g><g fill-opacity="0" stroke-opacity="0" stroke="#000000" stroke-width="1" transform="translate(41,81.3)"><path d=" M0,0  L-5,0 " transform="translate(-0.5,-0.5)"/></g><g fill="#000000" transform="translate(36,81.3)"><g transform="translate(-26,-8)" style="user-select: none;"><text x="0" y="16" dy="-3.2"><tspan>17</tspan></text></g></g><g fill-opacity="0" stroke-opacity="0" stroke="#000000" stroke-width="1" transform="translate(41,61)"><path d=" M0,0  L-5,0 " transform="translate(-0.5,-0.5)"/></g><g fill="#000000" transform="translate(36,61)"><g transform="translate(-26,-8)" style="user-select: none;"><text x="0" y="16" dy="-3.2"><tspan>18</tspan></text></g></g><g fill-opacity="0" stroke-opacity="0" stroke="#000000" stroke-width="1" transform="translate(41,40.7)"><path d=" M0,0  L-5,0 " transform="translate(-0.5,-0.5)"/></g><g fill="#000000" transform="translate(36,40.7)"><g transform="translate(-26,-8)" style="user-select: none;"><text x="0" y="16" dy="-3.2"><tspan>19</tspan></text></g></g><g fill-opacity="0" stroke-opacity="0" stroke="#000000" stroke-width="1" transform="translate(41,20.3)"><path d=" M0,0  L-5,0 " transform="translate(-0.5,-0.5)"/></g><g fill="#000000" transform="translate(36,20.3)"><g transform="translate(-26,-8)" style="user-select: none;"><text x="0" y="16" dy="-3.2"><tspan>20</tspan></text></g></g><g fill-opacity="0" stroke-opacity="0" stroke="#000000" stroke-width="1" transform="translate(41,0)"><path d=" M0,0  L-5,0 " transform="translate(-0.5,-0.5)"/></g><g fill="#000000" transform="translate(36,0)"><g transform="translate(-26,-8)" style="user-select: none;"><text x="0" y="16" dy="-3.2"><tspan>21</tspan></text></g></g><g fill-opacity="0" stroke-opacity="0" stroke="#000000" stroke-width="1" transform="translate(41,-20.3)" display="none"><path d=" M0,0  L-5,0 " transform="translate(-0.5,-0.5)"/></g><g fill="#000000" transform="translate(36,-20.3)" display="none"><g transform="translate(-26,-8)" style="user-select: none;"><text x="0" y="16" dy="-3.2"><tspan>22</tspan></text></g></g></g></g><g stroke="#000000" stroke-opacity="0" fill="none" style="pointer-events: none;" transform="translate(52,0)"><path d=" M0,0  L0,427 " transform="translate(-0.5,-0.5)"/></g></g></g></g></g><g transform="translate(718,0)"><g/></g></g></g><g><g transform="translate(52,0)"/></g><g transform="translate(0,427)"><g transform="translate(52,0)"><g><g><g stroke="#000000" stroke-opacity="0" fill="none" style="pointer-events: none;"><path d=" M0,0  L666,0 " transform="translate(-0.5,-0.5)"/></g><g stroke="#000000" stroke-opacity="0.15" fill="none" display="none" transform="translate(666,-427)" opacity="0" visibility="hidden"><path transform="translate(-0.5,-0.5)" d=" M0,0  L0,427 "/></g><g><g><g fill="#000000" fill-opacity="0" opacity="0" stroke-opacity="0" transform="translate(333,0)"><g transform="translate(-2,10)" style="user-select: none;"><text x="0" y="16" dy="-3.2"><tspan>|</tspan></text></g></g><g fill-opacity="0" stroke-opacity="0" stroke="#000000" stroke-width="1" transform="translate(83.25,0)"><path d=" M0,0  L0,5 " transform="translate(-0.5,-0.5)"/></g><g fill="#000000" transform="translate(83.25,0)"><g transform="translate(-14,10)" style="user-select: none;"><text x="0" y="16" dy="-3.2"><tspan>0:do</tspan></text></g></g><g fill-opacity="0" stroke-opacity="0" stroke="#000000" stroke-width="1" display="none" transform="translate(749.25,0)"><path d=" M0,0  L0,5 " transform="translate(-0.5,-0.5)"/></g><g fill="#000000" display="none" transform="translate(749.25,0)"><g transform="translate(0,10)" display="none"/></g><g fill-opacity="0" stroke-opacity="0" stroke="#000000" stroke-width="1" transform="translate(249.75,0)"><path d=" M0,0  L0,5 " transform="translate(-0.5,-0.5)"/></g><g fill="#000000" transform="translate(249.75,0)"><g transform="translate(-14,10)" style="user-select: none;"><text x="0" y="16" dy="-3.2"><tspan>1:n't</tspan></text></g></g><g fill-opacity="0" stroke-opacity="0" stroke="#000000" stroke-width="1" transform="translate(416.25,0)"><path d=" M0,0  L0,5 " transform="translate(-0.5,-0.5)"/></g><g fill="#000000" transform="translate(416.25,0)"><g transform="translate(-23,10)" style="user-select: none;"><text x="0" y="16" dy="-3.2"><tspan>2:know</tspan></text></g></g><g fill-opacity="0" stroke-opacity="0" stroke="#000000" stroke-width="1" transform="translate(582.75,0)"><path d=" M0,0  L0,5 " transform="translate(-0.5,-0.5)"/></g><g fill="#000000" transform="translate(582.75,0)"><g transform="translate(-8,10)" style="user-select: none;"><text x="0" y="16" dy="-3.2"><tspan>3:.</tspan></text></g></g></g></g><g fill="#000000" transform="translate(304,36)"><g style="user-select: none;"><text x="0" y="16" dy="-3.2"><tspan>Timestep</tspan></text></g></g></g></g></g></g></g></g><g role="group" aria-label="Legend" transform="translate(0,479)"><g><g focusable="true" role="checkbox" aria-controls="id-103" aria-labelledby="id-103" aria-checked="true" transform="translate(281,0)" style="cursor: pointer;"><g fill="#ffffff" fill-opacity="0"><rect width="76" height="43"/></g><g transform="translate(0,10)"><g fill="#67b7dc" style="pointer-events: none;"><g fill="#ffffff" fill-opacity="0" stroke-opacity="0" stroke="#999999"><rect width="23" height="23"/></g><g><g fill="#67b7dc" fill-opacity="0" stroke="#611aff" stroke-opacity="1" stroke-width="2" transform="translate(0,11.5)"><line x1="0" y1="0" x2="23" y2="0" transform="translate(-0.5,-0.5)"/></g><g focusable="true" fill="#67b7dc" stroke="#611aff" transform="translate(11.5,11.5)"><g><g fill="#611aff"><circle r="5"/></g></g></g></g></g><g fill="#000000" style="pointer-events: none;" transform="translate(28,3.5)"><g style="user-select: none;"><text x="0" y="16" dy="-3.2"><tspan>openai</tspan></text></g></g><g fill="#000000" style="pointer-events: none;" display="none"><g display="none"/></g></g></g><g focusable="true" role="checkbox" aria-controls="id-122" aria-labelledby="id-122" aria-checked="true" transform="translate(367,0)" style="cursor: pointer;"><g fill="#ffffff" fill-opacity="0"><rect width="60" height="43"/></g><g transform="translate(0,10)"><g fill="#6794dc" style="pointer-events: none;"><g fill="#ffffff" fill-opacity="0" stroke-opacity="0" stroke="#999999"><rect width="23" height="23"/></g><g><g fill="#6794dc" fill-opacity="0" stroke="#ff325a" stroke-opacity="1" stroke-width="2" transform="translate(0,11.5)"><line x1="0" y1="0" x2="23" y2="0" transform="translate(-0.5,-0.5)"/></g><g focusable="true" fill="#6794dc" stroke="#ff325a" transform="translate(11.5,11.5)"><g><g fill="#ff325a"><circle r="5"/></g></g></g></g></g><g fill="#000000" style="pointer-events: none;" transform="translate(28,3.5)"><g style="user-select: none;"><text x="0" y="16" dy="-3.2"><tspan>lstm</tspan></text></g></g><g fill="#000000" style="pointer-events: none;" display="none"><g display="none"/></g></g></g></g></g></g></g></g></g></g></g></svg>